<svg xmlns="http://www.w3.org/2000/svg" width="520" height="440" viewBox="0 0 520 440">
  <g id="img_contents" transform="translate(45.256 6.237)">
    <path id="パス_2809" data-name="パス 2809" d="M242.662,228.638a132.826,132.826,0,0,0,1.2,21.411,67.588,67.588,0,0,1-.172,14.593c-1.022,10.13-2.559,20.2-3.882,30.294a197.752,197.752,0,0,1-4.3,20.078c-1.968,8.173-5.517,15.873-8.517,23.734s-4.689,16.325-6.452,24.605c-.538,2.549-.936,5.13-1.334,7.7-.312,2.043.624,3.431,2.592,4.538a96.919,96.919,0,0,0,11.765,5.269,11.893,11.893,0,0,1,3.57,2.054c3.14,2.839,2.366,6.1-1.839,7.474a11.636,11.636,0,0,1-5.6.333q-5.936-.957-11.829-2.022a44.754,44.754,0,0,0-5.635-.473,59.736,59.736,0,0,0-17.411,1.678c-6.452,1.6-13.1,1.473-19.7,1.581A18.745,18.745,0,0,1,167,389.41c-1.946-.882-2.043-1.946-.333-3.226,3.172-2.334,6.99-3.592,10.614-5.173,1.495-.645,3-1.269,4.506-1.893,3.624-1.516,5.291-4.119,5.259-7.743a35.253,35.253,0,0,0-.989-7.732,41.682,41.682,0,0,1-1.075-11.292,41.305,41.305,0,0,0-1.613-12.9,94.073,94.073,0,0,1-2-10.818,17.346,17.346,0,0,0-.6-2.861c-3.474-10.378-5.119-21.121-7.356-31.746-.9-4.237-.85-8.6-1.8-12.9-2.258-10.066-3.506-20.325-6.452-30.251-3.947-13.055-6.377-26.412-9.872-39.564-.839-3.151-1.57-6.334-3.538-9.13-1.484-2.1-1.645-2.291-4.3-1.377-7.4,2.57-14.884,4.979-21.96,8.238-12.249,5.646-24.8,10.689-37.488,15.41-4.635,1.721-8.754,4.3-13.27,6.13a19.648,19.648,0,0,1-4.979,1.656c-2.914.4-3.99-.667-3.366-3.312.9-3.925,3.818-6.657,6.818-9.27a52.469,52.469,0,0,1,5.291-3.807c2.377-1.592,2.57-1.753,1.721-4.3a12.4,12.4,0,0,1-.462-6.732c.473-2.151,1.237-2.549,3.441-1.742.538.2,1.075.462,1.592.71A7.184,7.184,0,0,0,91.5,203.7c7.044-3.549,14.421-6.452,21.615-9.754,10.378-4.721,20.379-10.033,30.423-15.26,7.99-4.151,16.185-8.1,23.53-13.238,3.57-2.484,7.012-5.119,10.388-7.829a24.389,24.389,0,0,0,3.646-3.947c1.075-1.4.914-1.968-.731-2.807-.505-.269-1.075-.387-1.624-.634a6.452,6.452,0,0,1-3.785-4.732,17.852,17.852,0,0,1,2.323-13.4c2.732-4.667,5.1-9.528,7.528-14.346a9.119,9.119,0,0,1,4.56-4.3,56.276,56.276,0,0,1,10.6-3.613,6.775,6.775,0,0,1,4.183.075c7.13,2.947,13.432,6.452,13.711,14.851.14,3.979,1.2,7.915,1.538,11.915a10.808,10.808,0,0,1-1.86,7.42,14.486,14.486,0,0,0-2.226,6.452,3.323,3.323,0,0,0,1.753,3.613,3.537,3.537,0,0,0,.871.538c4.57,1.2,8.377,3.882,12.754,5.506,11.711,4.3,23.476,8.539,34.929,13.475,6.958,3,13.421,6.829,20.433,9.754,9.023,3.8,18.131,7.4,27.025,11.431,5.194,2.355,10.625,4.183,15.787,6.56,1.355.624,2.377.71,3.129-.839.914-1.9,2.71-2.882,4.882-3.42,2.947-.731,5.721-2.151,8.9-1.946,1.14.065,2.506-.312,3.108.957.484,1-.215,1.86-.828,2.678-2.9,3.828-2.818,4.087,1.688,6a101.694,101.694,0,0,1,10.345,4.979c.946.538,1.871,1.075,1.731,2.151a2.586,2.586,0,0,1-2.495,1.925c-3.28.29-6.452,1.161-9.84.9-9.044-.678-18.153-.882-27.122-2.334a10.756,10.756,0,0,0-2.151-.2c-5.1.108-10.109-.764-15.142-1.129-6.624-.473-13.055-1.828-19.6-2.581-10.55-1.237-20.723-4.2-30.928-6.926-2.721-.721-5.442-1.452-8.205-2.011-2.151-.43-2.71.065-3.022,2.1a5.774,5.774,0,0,0,0,.968C243.522,211.259,242.092,219.777,242.662,228.638Zm-71.621,158.6a3.785,3.785,0,0,0,3.226,1.075c4.14,0,8.27.075,12.4,0,3.818-.1,7.42-1.3,11.087-2.151a2.43,2.43,0,0,0,2.151-2.581c0-.871-.065-1.731,0-2.6.172-3.129.28-6.452,1.581-9.227a11.1,11.1,0,0,0,1.14-6.216,19.357,19.357,0,0,1,0-4.527c.312-2.7.645-5.377.753-8.1.495-13.1-.161-26.207,0-39.306,0-1.4-.323-2.8-.4-4.2,0-.882.172-1.828,1.355-1.989s1.71.7,1.85,1.57a29.042,29.042,0,0,1,.269,3.871c.226,8.872-.527,17.744.527,26.616a43.813,43.813,0,0,1-.065,7.786c-.333,5.173-.914,10.345-1.183,15.529a45.862,45.862,0,0,0,.333,7.775,53.6,53.6,0,0,1,.183,11.668c-.226,2.42,0,2.775,2.441,2.828a74.2,74.2,0,0,1,11.561,1.506c3.592.634,7.27.591,10.84,1.473,2.1.516,4.549-.624,4.517-1.678-.065-1.764-1.914-1.968-3.151-2.688a2.087,2.087,0,0,0-.323-.14,74.749,74.749,0,0,1-13.776-6.592c-2.215-1.312-2.99-2.7-2.559-5.087,1.28-7.055,2.592-14.1,4.3-21.067,1.129-4.646,2.054-9.367,4.086-13.776a130.923,130.923,0,0,0,7.743-20.895,194.3,194.3,0,0,0,5.377-26.132c1.344-10.646,2.882-21.271,3.667-31.961a26.508,26.508,0,0,0-.14-5.839c-1.409-9.453-1.559-18.959-1.753-28.466a10.646,10.646,0,0,1,.1-1.946c1.075-7.323.28-14.711,1.075-22.046.387-3.538.581-4.054,4.3-3.409,2.775.495,5.56,1.075,8.281,1.774,4.753,1.269,9.485,2.656,14.206,4.054a112.779,112.779,0,0,0,20.056,3.882c6.689.7,13.227,2.151,19.949,2.624,3.753.28,7.528.925,11.27.9a28.477,28.477,0,0,1,4.6.151c9.205,1.495,18.561,1.538,27.842,2.269a11.636,11.636,0,0,0,2.151-.065c.591-.054,1.28-.183,1.484-.731.29-.785-.43-1.172-1.075-1.452-2.334-1.075-4.7-2.032-7.033-3.065A8.356,8.356,0,0,1,342.6,203.7c-.8-1.172-.161-2.28.183-3.431s-.269-1.731-1.506-1.355c-2.925.914-6.528,1.258-6.076,5.377a1.345,1.345,0,0,1-.161.624c-.559,1.452-1.323,1.774-2.538.764a4.011,4.011,0,0,0-2.8-1.075,8.346,8.346,0,0,1-3.355-.979q-13.647-5.818-27.3-11.614c-5.581-2.355-11.356-4.355-16.765-7-7.388-3.613-14.722-7.345-22.358-10.507-11.41-4.721-23-9.023-34.746-12.991a4.173,4.173,0,0,0-3.635.548,132.2,132.2,0,0,1-11.829,5.958,21.014,21.014,0,0,1-6.8,1.721c-1.99.161-3.99.344-5.979.57-7.528.85-14.873,0-21.583-3.463a5.108,5.108,0,0,0-5.861.409,42.418,42.418,0,0,1-6.022,4c-9.367,4.377-18.013,9.926-27.326,14.41-6.162,2.968-12.152,6.248-18.357,9.152-7.775,3.635-15.744,6.926-23.519,10.56-3.14,1.473-6.044,2.807-9.679,1.549-1.527-.527-2.151.183-1.9,1.731a21.508,21.508,0,0,0,1.075,3.431c1.075,3.043,1.075,3.334-1.731,5.1a49.469,49.469,0,0,0-9.679,7.528c-1.075,1.075-2.215,2.151-1.925,3.861a3.687,3.687,0,0,0,.957,0c.645-.269,1.28-.559,1.893-.871a173.046,173.046,0,0,1,18.465-8.173c8.969-3.323,17.862-6.893,26.53-10.84,9.679-4.4,19.583-8.1,29.627-11.582,3.6-1.247,4.3-.817,5.689,2.452a7.021,7.021,0,0,0,.764,1.463,26.175,26.175,0,0,1,3.624,9.1c3.033,12.141,6.022,24.272,9.13,36.391a398.627,398.627,0,0,1,9.076,44.747,184.689,184.689,0,0,0,7.022,31.8,32.741,32.741,0,0,1,1.161,5.743,58.815,58.815,0,0,0,1.678,8.947,46.651,46.651,0,0,1,1.925,14.808,41.877,41.877,0,0,0,.893,10.012,51.939,51.939,0,0,1,1.237,9.679c.065,4.076-2.151,6.764-5.753,8.657-1.731.9-3.656,1.506-5.452,2.323C176.278,384.409,173.385,385.14,171.041,387.237Zm45.339-250.32c-.925-5.226-1.764-10.464-2.818-15.669a8.066,8.066,0,0,0-4.129-5.087c-1.377-.828-2.828-1.559-4.237-2.355a7.7,7.7,0,0,0-5.452-.731c-2.334.473-4.388,1.581-6.614,2.258a9.807,9.807,0,0,0-6.592,5.882,107.693,107.693,0,0,1-6.377,12.313,18.865,18.865,0,0,0-1.538,3.226c-1.882,5.581-1.613,9.829,5.5,12.819.645.269,1.247.645,1.914.85,3.452,1.075,6.818,2.581,10.571,2.355,2.7-.172,5.377-.7,8.055-1.075,1.075-.129,2.344-.957,3.226.28.57.807-.581,1.8-2.839,2.151-5.56.989-11.141,2.151-16.69-.118a3.689,3.689,0,0,0-4.656,1.258,38.712,38.712,0,0,1-6.807,6.571c-1.376,1.075-1.323,1.516.344,2.344,5.183,2.6,10.646,4.087,16.647,3.226,2.678-.376,5.377-.774,8.076-.882,6.388-.247,11.216-3.721,16.432-6.4,1.075-.538,1.075-1.376-.118-1.957-.624-.3-1.3-.505-1.925-.817-3.925-1.957-4.829-3.527-4.355-7.646a17.723,17.723,0,0,1,2.6-7.366A10.184,10.184,0,0,0,216.379,136.917Z" transform="translate(7.904 13.036)"/>
    <path id="パス_2810" data-name="パス 2810" d="M404.949,302.878c.14,1.269-1.075,1.989-2.495,1.387-1.9-.839-3.742-1.828-5.56-2.839-13.346-7.388-27.1-14.088-40.865-20.712-5.2-2.506-10.754-4.452-16.131-6.657-.968-.4-1.968-.764-2.882-1.237s-1.258-1.075-.893-1.9a1.578,1.578,0,0,1,2.086-.7c1.549.505,3.108,1.075,4.613,1.656A505.454,505.454,0,0,1,388.969,293.9c4.592,2.441,9.248,4.775,13.883,7.151C403.723,301.523,404.766,301.878,404.949,302.878Z" transform="translate(40.114 32.206)"/>
    <path id="パス_2811" data-name="パス 2811" d="M84.758,285.326c1.215.064,2.42.086,2.8,1.2s-.677,1.721-1.613,2.215a8.9,8.9,0,0,1-1.269.559c-11.765,3.914-22.906,9.1-34.284,13.83-4.71,1.957-9.679,3.452-14.529,5.087a27.531,27.531,0,0,0-7.9,3.517,3.043,3.043,0,0,1-1.592.645c-1.538.129-3.592-.688-3.538-1.516.075-1.42,1.484-1.484,2.538-1.839a341.762,341.762,0,0,0,35.155-13.6c6.216-2.839,12.335-5.872,18.658-8.506a18.691,18.691,0,0,1,5.581-1.592Z" transform="translate(2.724 34.024)"/>
    <path id="パス_2812" data-name="パス 2812" d="M93.539,110.266a1.3,1.3,0,0,1-1.882,1.258,15.97,15.97,0,0,1-2.764-1.42c-8.13-4.807-16.131-9.818-24.412-14.4-6.71-3.732-13.9-6.872-20.8-10.41-4.3-2.215-8.732-4.3-12.27-7.635A5.99,5.99,0,0,1,29.65,75.67,1.28,1.28,0,0,1,30.22,74a1.366,1.366,0,0,1,1.893.226c4.9,6.753,13.066,9.453,20.357,12.959a286.947,286.947,0,0,1,27.885,15.335,47.705,47.705,0,0,0,10.754,5.571,3.054,3.054,0,0,1,2.43,2.172Z" transform="translate(3.525 8.759)"/>
    <path id="パス_2813" data-name="パス 2813" d="M74.492,369.314c.129-.914.893-1.28,1.527-1.753,5.7-4.216,11.453-8.367,17.045-12.69,4.506-3.484,8.808-7.194,13.184-10.819a20.972,20.972,0,0,1,3.839-2.861c.817-.419,1.742-.979,2.538-.1s0,1.42-.43,2.043a28.8,28.8,0,0,1-6.044,5.882c-8.743,6.227-17.712,12.227-25.648,19.357a7,7,0,0,1-4.3,2.076C75.309,370.508,74.546,370.272,74.492,369.314Z" transform="translate(8.893 40.627)"/>
    <path id="パス_2814" data-name="パス 2814" d="M41.671,211.066h4.592c.871,0,1.667.29,1.839,1.2a2.022,2.022,0,0,1-1.183,2.151,2.71,2.71,0,0,1-1.7.269c-9.818-1.075-19.486.237-29.176,1.42-4.087.495-8.173.957-12.27,1.355-1.333.14-2.957.645-3.7-.957-.441-.946,1.151-2.151,3.291-2.226,6.377-.172,12.636-1.226,18.949-1.85s12.9-.989,19.357-1.473Z" transform="translate(-0.001 25.145)"/>
    <path id="パス_2815" data-name="パス 2815" d="M184.621,46.99c-.065.742-.065,1.613-.215,2.452a1.29,1.29,0,0,1-2.495.14,5.3,5.3,0,0,1-.258-1.592c-.376-10.163-1.893-20.217-3.226-30.3-.667-5.14-.957-10.335-1.387-15.5-.086-1.011,0-2.151,1.43-2.151s1.731,1.011,1.753,2.033c.108,4.538.4,9.055.774,13.593.613,7.323,1.624,14.6,2.559,21.9C183.965,40.624,184.266,43.753,184.621,46.99Z" transform="translate(21.134 -0.038)"/>
    <path id="パス_2816" data-name="パス 2816" d="M158.5,58.065c0,1,0,1.989-1.247,2.151s-1.667-.8-1.839-1.635a37.521,37.521,0,0,0-3.086-8.281c-1.624-3.366-3.463-6.635-5.377-9.872-2.592-4.366-4.882-8.894-7.431-13.281-1.387-2.387-3.054-4.635-4.57-6.958-.591-.914-1.484-2.011.118-2.721,1.3-.581,2.151.118,2.742,1.3,3.914,8.721,9.345,16.755,13.8,25.24,1.731,3.312,3.6,6.571,5.377,9.872a13.2,13.2,0,0,1,1.516,4.183Z" transform="translate(16.017 2.018)"/>
    <path id="パス_2817" data-name="パス 2817" d="M336.4,352.419a1.377,1.377,0,0,1-1.688,1.3,8.968,8.968,0,0,1-3.506-1.473,113.459,113.459,0,0,1-13.184-8.689,89.194,89.194,0,0,0-12.647-8.281,7.707,7.707,0,0,1-1.194-.7,1.312,1.312,0,0,1-.635-1.688,1.527,1.527,0,0,1,1.764-.753,11.165,11.165,0,0,1,3.839,1.581c4.656,2.592,8.6,6.065,12.9,9.076a97.79,97.79,0,0,0,12.238,7.657C335.191,350.913,336.18,351.344,336.4,352.419Z" transform="translate(36.228 39.606)"/>
    <path id="パス_2818" data-name="パス 2818" d="M364.19,188.728h-.355c-1.14,0-2.635.194-2.8-1.269-.129-1.29,1.3-1.377,2.3-1.538,3.14-.495,6.291-.914,9.431-1.387,8.388-1.247,16.679-3.043,25.164-3.635a16.41,16.41,0,0,0,1.764-.2c.968-.118,2.065-.2,2.344.871.323,1.258-.731,1.807-1.871,1.86-11.948.645-23.54,3.355-35.273,5.226a5.254,5.254,0,0,1-.71.075Z" transform="translate(43.105 21.523)"/>
    <path id="パス_2819" data-name="パス 2819" d="M340.46,101.991a2.054,2.054,0,0,1,1.237-1.936c1.774-1.075,3.56-2.151,5.377-3.065,8.141-4.14,16.583-7.743,24.938-11.528a7.044,7.044,0,0,1,1.3-.495,1.506,1.506,0,0,1,1.839.527,1.258,1.258,0,0,1-.376,1.764,12.131,12.131,0,0,1-2.43,1.269,242.485,242.485,0,0,0-28.208,13.485,4.958,4.958,0,0,1-2.226.946,1.312,1.312,0,0,1-1.452-.968Z" transform="translate(40.648 10.087)"/>
    <path id="パス_2820" data-name="パス 2820" d="M248.887,63.7a9.312,9.312,0,0,1,.678-1.57c5.463-8.786,8.807-18.346,12.227-27.885a24.48,24.48,0,0,1,1.269-3.011,1.516,1.516,0,0,1,2.011-.839,1.484,1.484,0,0,1,.839,1.925,10.753,10.753,0,0,1-.559,1.527c-2.463,6.076-4.872,12.163-7.42,18.2-1.409,3.312-3.033,6.549-4.613,9.808a6.721,6.721,0,0,1-2.495,3.076C249.887,65.512,248.9,65,248.887,63.7Z" transform="translate(29.715 3.572)"/>
    <path id="パス_2821" data-name="パス 2821" d="M130.368,355.456c.8,0,1.215.505,1.215,1.4a1.452,1.452,0,0,1-.151.634c-1.957,3.549-3.839,7.13-5.9,10.625-.8,1.355-1.946,1.3-3.076.14-2.3-2.409-2.344-2.9,0-5.463a10.753,10.753,0,0,0,2.85-4.409C125.905,355.758,128.153,355.908,130.368,355.456Z" transform="translate(14.411 42.398)"/>
    <path id="パス_2822" data-name="パス 2822" d="M272.731,355.887a1.269,1.269,0,0,1,1.925-1.151,9.452,9.452,0,0,1,2.495,1.742c3.076,2.968,6.087,5.99,9.119,9a3.292,3.292,0,0,1,.624.774,1.312,1.312,0,0,1-.237,1.774,1.473,1.473,0,0,1-1.925,0,16.275,16.275,0,0,1-1.559-1.29c-3.4-2.99-6.022-6.635-9.571-9.5A2.215,2.215,0,0,1,272.731,355.887Z" transform="translate(32.562 42.29)"/>
    <path id="パス_2823" data-name="パス 2823" d="M185.574,119.142c-1.075.656-.893,1.549-1.323,2.151-.548.807-1.43,1.075-2,.323-.8-1.075-1.85-1.075-3.022-1.269a1.549,1.549,0,1,1,.387-3.065,4.5,4.5,0,0,0,4.011-1.344c1.258-1.075,3.011-.721,4.42.527s1.925,3.474,1.172,4.441a1.247,1.247,0,0,1-1.839.226C186.607,120.658,186.628,119.583,185.574,119.142Z" transform="translate(21.223 13.723)"/>
    <path id="パス_2824" data-name="パス 2824" d="M183.48,135.573a33.335,33.335,0,0,1,6.173,1.463c1.011.355,2.151.882,1.731,2.076s-1.6,1.075-2.667.731c-.559-.151-1.075-.366-1.656-.559-2.785-1-5.5-1.161-8,.667a3.065,3.065,0,0,1-.613.333c-.968.43-2.054.979-2.764-.183-.591-.957.312-1.592,1.075-2.151A10.915,10.915,0,0,1,183.48,135.573Z" transform="translate(20.952 16.144)"/>
    <path id="パス_2825" data-name="パス 2825" d="M185.025,126.629c-1.28.086-2.549.2-3.828.247a1.334,1.334,0,0,1-1.506-1.075,1.215,1.215,0,0,1,1.022-1.473c2.731-.484,5.474-1.14,8.281-.484.817.194,1.57.591,1.527,1.506-.054,1.129-1.022,1.3-2,1.333h-3.5Z" transform="translate(21.45 14.711)"/>
    <path id="パス_2826" data-name="パス 2826" d="M192.188,117.608c1.161,0,1.989.559,2.054,1.7s-.785,1.753-1.946,1.882a1.925,1.925,0,0,1-2.344-1.473C189.736,118.748,190.876,117.694,192.188,117.608Z" transform="translate(22.675 13.999)"/>
    <path id="パス_2827" data-name="パス 2827" d="M189.875,188.167a.753.753,0,0,0-.581.387,46.038,46.038,0,0,1-15.249,11.077,1.634,1.634,0,0,1-.7.151,1.42,1.42,0,0,1-1.355-.968,1.484,1.484,0,0,1-.161-.7,1.409,1.409,0,0,1,.86-1.312,42.231,42.231,0,0,0,14.9-10.689,3.345,3.345,0,0,1,4.527,0,39.693,39.693,0,0,0,15.346,10.571,1.409,1.409,0,0,1,.925,1.355,1.613,1.613,0,0,1-.161.731,1.516,1.516,0,0,1-1.387,1.011,1.635,1.635,0,0,1-.7-.151c-5.958-2.785-11.765-6.657-15.636-11.109a.785.785,0,0,0-.635-.355Zm-7.141,22a1.431,1.431,0,0,1-.237.742,29.8,29.8,0,0,1-7.087,8.205,1.785,1.785,0,0,1-1.075.387,1.635,1.635,0,0,1-1.2-.581,1.516,1.516,0,0,1-.387-1.011,1.484,1.484,0,0,1,.624-1.161,23.218,23.218,0,0,0,6.538-7.28,1.4,1.4,0,0,1,1.237-.688,2.022,2.022,0,0,1,.817.194,1.366,1.366,0,0,1,.774,1.194Zm-1.4-10.915c-.7,0-1.075-.538-1.075-1.312s.344-1.323,1.075-1.323h17.378c.656,0,1.075.548,1.075,1.323s-.387,1.312-1.075,1.312H191.4v5.076h14.4c.656,0,1.075.538,1.075,1.355s-.387,1.355-1.075,1.355H191.423v10.367c0,2.559-1.516,3.6-4.452,3.6a18.283,18.283,0,0,1-3.828-.344,1.344,1.344,0,0,1-1.011-1.323,1,1,0,0,1,.075-.462,1.194,1.194,0,0,1,1.161-1.075,1.324,1.324,0,0,1,.355,0,14.358,14.358,0,0,0,2.893.355c1.323,0,1.9-.355,1.9-1.624v-9.593H174.271c-.688,0-1.075-.548-1.075-1.355s.4-1.355,1.075-1.355H188.52V199.2Zm16.873,9.528a1.452,1.452,0,0,1,1.247.656,24.81,24.81,0,0,0,6.689,7.194,1.344,1.344,0,0,1,.581,1.161,1.57,1.57,0,0,1-.387,1.075,1.624,1.624,0,0,1-1.28.613,1.656,1.656,0,0,1-.957-.344,30.831,30.831,0,0,1-7.248-8.248,1.441,1.441,0,0,1-.14-.721,1.355,1.355,0,0,1,.774-1.194,2.151,2.151,0,0,1,.742-.247Z" transform="translate(20.514 22.073)"/>
    <path id="パス_2828" data-name="パス 2828" d="M200.4,225.408c2.516,0,3.753,1.075,3.753,3.678v21.637c0,2.549-1.237,3.678-3.753,3.678H178.887c-2.549,0-3.753-1.129-3.753-3.678v-21.6c0-2.559,1.237-3.678,3.753-3.678h6.452a27.271,27.271,0,0,0,2.151-4.839,1.441,1.441,0,0,1,1.516-.86,2.269,2.269,0,0,1,.538,0c.85.118,1.28.624,1.28,1.075a.612.612,0,0,1,0,.269,30.175,30.175,0,0,1-2.054,4.3Zm.656,4.3c0-1.075-.419-1.516-1.774-1.516H180.038c-1.323,0-1.785.43-1.785,1.516v8.281h22.8Zm-22.8,11.141v9.141c0,1.075.462,1.506,1.785,1.506h19.239c1.355,0,1.774-.419,1.774-1.506v-9.141Z" transform="translate(20.909 26.192)"/>
    <g id="長方形_6883" data-name="長方形 6883" transform="translate(-45.256 -6.237)" fill="none" stroke="#707070" stroke-width="1">
      <rect width="520" height="440" stroke="none"/>
      <rect x="0.5" y="0.5" width="519" height="439" fill="none"/>
    </g>
  </g>
</svg>
