<svg xmlns="http://www.w3.org/2000/svg" width="520" height="440" viewBox="0 0 520 440">
  <g id="img_ornament" transform="translate(78.032 168.088)">
    <path id="パス_2871" data-name="パス 2871" d="M220.9,184.439c-.863-.545-1.542.062-2.251.308-5.313,1.85-11.655-.123-14.2-4.728a34.327,34.327,0,0,1-4.5-16.783,10.017,10.017,0,0,1,0-1.11c.154-1.233.164-2.724,2.055-2.662,1.542.051,1.757,1.367,1.829,2.5.092,1.357.062,2.724.1,4.111a23.391,23.391,0,0,0,4.275,12.61c2.693,3.936,7.544,4.676,11.531,1.87,3.361-2.364,6.166-5.036,7.133-9.085.586-2.528,1.778-4.933,2.569-7.431,1.131-3.556.853-3.875-3.022-4h-2.055c-6.732.175-10.884-4.532-12.333-9.476a5.817,5.817,0,0,1,1.028-5.3,22.929,22.929,0,0,0,3.885-8.911,126.923,126.923,0,0,1,4.378-15.077c1.459-4.245-.719-7.431-3.433-10.442a4.954,4.954,0,0,0-4.861-1.182c-3.289.689-6.557,1.439-9.836,2.189a3.71,3.71,0,0,0-2.734,2.056c-1.583,3.433-2.837,6.978-2.7,10.76.092,2.765.791,5.385,3.556,7.122,1.922,1.213,2.055,2.847.822,4.543a111.367,111.367,0,0,0-7.965,12.477c-1.079,2.056-2.333,2.3-4.7,1.2-3-1.4-5.91-2.98-8.818-4.532s-3.464-1.439-3.5,1.583a34.39,34.39,0,0,0,.226,6.67c.9,5.026.514,10.123,1.182,15.159a24.069,24.069,0,0,1-.391,5.54c-.946,9.764.843,19.229,3.731,28.571a63.842,63.842,0,0,1,2.508,11.305c.483,3.977-.339,4.748-4.666,5.139-3.35.277-6.732.483-9.476,2.693a4.83,4.83,0,0,1-2.22.832c-8.109,1.213-16.208,2.61-24.46.668-4.573-1.089-9.25-1.87-13.227-4.388a50.81,50.81,0,0,0-6.166-2.765c-2.559-1.151-2.96-1.727-2.5-4.388a175.951,175.951,0,0,0,2.292-17.842c.586-8.633,1.439-17.246,2.055-25.879.5-6.536.915-13.073,1.357-19.609a11.192,11.192,0,0,0,.072-1.85c-.113-1.192-.853-1.521-1.932-.884s-2.189,1.439-3.258,2.2c-1.274.915-2.487,1.9-3.792,2.775-3.227,2.169-4.286,1.922-6.166-1.449-1.089-1.984-2.158-3.988-3.083-6.043a22.22,22.22,0,0,0-3.977-5.992c-2.251-2.456-2.23-2.837.339-5.242q7.061-6.65,14.245-13.186c1.922-1.757-.267-32.4-.452-37.348a86.506,86.506,0,0,1,5.139-33.916c3.618-9.651,9.044-18.664,17.2-25.694,9.332-8.058,20.349-13.618,33.618-13.6a36.434,36.434,0,0,1,21.459,6.557,47.462,47.462,0,0,1,11.059,11.059c2.919,3.844,4.913,9.825,6.167,14.748,1.223,9.825,0,14.738-.432,21.583.185,12.867,1.336,25.694,2.477,38.479.247,2.744,1.028,5.026,3.864,6.526a10.277,10.277,0,0,1,3.237,3.279c1.028,1.439,1.912,1.028,2.693-.236,1.418-2.24,2.9-4.46,4.224-6.752a6.228,6.228,0,0,1,6.6-3.289c3.392.319,6.7-.586,10.051-.832a5.5,5.5,0,0,0,4.183-2.61,12.056,12.056,0,0,1,3.083-3.371c1.264-.832,2.61-1.459,4.018-.3,1.233,1.028.935,2.23.236,3.381a21.872,21.872,0,0,0-2.364,4.6c-.3.925-1.028,1.932-.154,2.806s2.261.524,3.422.247a21.775,21.775,0,0,0,2.662-.874,14.306,14.306,0,0,0,3.268-1.459c4.543-3.392,8.15-2.364,12.025,1.264,5.94,5.57,12.333,10.7,18.5,16.095,2.826,2.5,2.744,3.587-.37,5.981-2.693,2.055-5.509,3.988-8.376,5.848a6.629,6.629,0,0,0-3.227,7.708,211.255,211.255,0,0,0,6.968,26.649c1.336,3.762,2.2,7.657,3.3,11.48a23.536,23.536,0,0,0,.946,2.837c.37.884.524,2.127,1.881,2.117,1.11,0,1.326-1.11,1.757-1.85,3.083-5.139,6.166-10.154,9.075-15.324,2.179-3.885,2.909-8.222,4.018-12.415.1-.36.092-.74.164-1.11.247-1.274.647-2.641,2.425-2.354s1.285,1.6,1.151,2.724c-.74,6.362-3.2,12.24-5.807,18.088a153.466,153.466,0,0,1-8.129,14.933c-2.395,4.111-1.737,8.058,1.542,11.572a1.357,1.357,0,0,0,2.292-.021c.976-1.182,1.84-2.436,2.734-3.679s1.86-2.724,2.9-4.018c.658-.822,1.6-1.521,2.765-.8s.647,1.706,0,2.59a85.7,85.7,0,0,1-5.827,8.016c-2.251,2.456-2.117,4.625-.308,7.05q.925,1.223,1.757,2.5c1.583,2.415,1.572,3.268-.925,5.026-5.9,4.111-11.737,8.4-19.63,8.941a10.73,10.73,0,0,0-3.772,1.244c-5.971,2.919-12.415,4-19.054,4.512-7.328.565-14.388-.637-21.665-1.459-11.747-1.357-21.408-6.444-30.74-12.446a67.834,67.834,0,0,1-6.166-4.779c-1.9-1.552-2.056-2.354-.278-3.988,5.9-5.3,9.435-11.994,13.361-18.5C220.78,185.868,221.366,185.251,220.9,184.439ZM252.486,115.8a34.831,34.831,0,0,1,0,5.139c-.493,3.165-3.422,4.193-6.259,2.3a9.363,9.363,0,0,1-3-3.443c-.843-1.552-1.6-3.145-2.477-4.676-1.028-1.778-1.47-1.87-2.857-.442a74.748,74.748,0,0,1-9.25,8.325,4.419,4.419,0,0,0-1.953,4.584c.411,2.693.761,5.385,1.223,8.078.863,5.139,1.12,5.221,5.735,2.395.894-.555,1.757-1.346,2.9-.8a2.809,2.809,0,0,1,1.285,2.929,22.519,22.519,0,0,1-.473,3.309c-.812,3.885-1.84,7.739-2.456,11.655a97.234,97.234,0,0,1-6.115,20.719c-4,10.051-9.866,19.219-16.66,27.883-1.953,2.477-2.107,3.135.37,4.974,8.715,6.516,17.749,12.559,29.5,13.638,2,.185,3.977.658,5.961,1.028a67.358,67.358,0,0,0,27.646-.349c5.057-1.131,9.455-3.6,14.1-5.529,1.357-.565,2.61-1.346,4.173-.545a3.34,3.34,0,0,0,3.422-.483c2.425-1.562,4.789-3.207,7.194-4.841.668-.462,1.244-1.079.966-1.891-.565-1.655-1.028-3.628-2.734-4.4s-2.806,1.028-4.111,1.819a4.565,4.565,0,0,0-.576.514c-3.474,3.32-7.605,5.91-11.418,8.859a6.937,6.937,0,0,1-1.7.976,1.593,1.593,0,0,1-1.829-.391,1.192,1.192,0,0,1,.113-1.7,6.167,6.167,0,0,1,1.48-1.244c4.111-2.2,7.389-5.385,10.863-8.284,6.629-5.529,6.31-4.06,1.85-11.922-1.12-1.973-1.86-1.942-3.577-.206-.812.822-1.274,1.922-2.354,2.528a2.21,2.21,0,0,1-2.621,0c-.915-.709-.678-1.593-.051-2.312a28.619,28.619,0,0,1,3-3.011,4.594,4.594,0,0,0,1.295-6.043c-3.453-7.42-4.306-15.581-7.729-23.011-.668-1.449-.689-3.145-1.028-4.707-2.056-8.171-3.258-16.506-5.992-24.532-.555-1.614-.082-2.3,1.84-2.374a4.857,4.857,0,0,0,3.083-.545c2.662-1.9,5.406-3.7,7.975-5.7,2.055-1.572,1.963-2.055.206-3.947a22.765,22.765,0,0,0-2.056-1.829c-5.406-4.471-10.853-8.89-16.218-13.361a3.967,3.967,0,0,0-4.748-.627,42.251,42.251,0,0,1-8.921,3.464c-7.05,1.562-7.05,1.572-7.02,8.027Zm-79.424,30.36h.082v-1.85c.123-1.552-.761-3.515,1.028-4.46,1.973-1.028,3.587.606,5.067,1.511a81.507,81.507,0,0,0,9.537,4.861c1.881.832,3.022.452,3.823-1.285a35.4,35.4,0,0,1,4.707-7.328c2.055-2.559,1.942-2.939-.925-5.139a184.5,184.5,0,0,1-23.042-20.73c-2.539-2.724-3.4-2.888-6.7-.432-3.905,2.909-7.78,2.9-11.984.719-2.991-1.542-3.022-1.49-3.443,1.675-.051.37-.072.74-.134,1.1-.606,3.535-1.151,7.05-3.083,10.277-1.5,2.467-2.713,2.713-4.656.442a29.7,29.7,0,0,1-1.819-2.456c-1.994-2.939-4-5.879-5.951-8.828-2.837-4.275-3.011-4.4-6.166-.493a111.205,111.205,0,0,1-11.932,12.076q-3.443,3.145-6.824,6.331c-2.282,2.138-2.24,2.127-.75,4.728,1.254,2.189,2.487,4.388,3.587,6.639,2.436,4.995,2.9,5.139,7.472,1.367,2.425-2.055,5.293-3.392,8.006-5.005,1.778-1.028,3.083-.308,3.279,1.655a9.476,9.476,0,0,1-.236,2.2c-.3,2.21-.617,4.409-.894,6.619-.925,7.369-.709,14.81-1.583,22.189-1.47,12.528-1.973,25.139-3.792,37.636-.267,1.891.308,2.939,2.055,3.9,5.981,3.165,12.086,5.755,19.1,6.66,7.831,1.028,15.272.678,22.364-2.693a15.324,15.324,0,0,1,4.275-1.028c7.379-1.161,7.749-1.768,6.1-8.51-1.12-4.584-3.186-8.941-3.885-13.618-.73-4.892-2.374-9.681-1.706-14.707a86.671,86.671,0,0,0,0-22.189C173.586,154.049,173.391,150.051,173.062,146.156Zm-29.7-89.784c4.645-5.93,11.706-9.527,15.8-15.786a97.087,97.087,0,0,0,5.581-10.7c1.686-3.412,4.111-3.71,6.752-.9,1.5,1.583,2.765,3.371,4.337,4.892,4.06,3.905,7.451,8.551,13.474,10.349,1.84.545,2.24,1.912,2.055,3.577-.586,5.283-1.028,10.586-1.686,15.868-.843,7.369-2.055,14.7-2.888,22.076-.627,5.8-.545,11.614-1.316,17.389-.5,3.792-.627,7.636-.843,11.459a5.807,5.807,0,0,0,1.387,4.532,30.339,30.339,0,0,0,7.318,5.735,2.837,2.837,0,0,0,.74-2.22,36.751,36.751,0,0,1,2.158-9.034,7.585,7.585,0,0,1,7.061-5.694,20.729,20.729,0,0,0,3.155-.658c6.845-1.747,6.752-1.747,6.166-8.356-.606-7.194-1.2-14.3-1.49-21.459-.514-12.847-.1-20.01-.74-32.888-.257-5.283-1.994-9.383-4.183-13.988-1.028-2.055-5.642-8.119-9.332-10.576-5.139-3.412-11.737-7.811-20.37-7.914-13.967-.175-25.159,5.8-34.09,14.758a61.13,61.13,0,0,0-17.533,33.309c-1.285,7.688-2.333,15.416-2.056,23.258.144,3.464,1.727,25.272,1.552,28.715-.164,3.155,4.913-1.223,6.166-3.679,1.223-3.69,6.166-7.369,7.369-8.6l4.882-.206c.791-.144,1.572-.37,2.374-.452,3.32-.38,4.635.288,6.084,3.011.647,1.223,1.223,2.487,1.953,3.659,2.693,4.306,7.533,5.221,11.942,2.292,1.028-.658,1.953-1.336,2.991-1.912,2.867-1.6,3.587-1.5,5.766.935a30.832,30.832,0,0,0,6.68,5.663c.236-4.224,1.264-8.222,1.439-12.251.339-8.027,1.192-16.012,2.169-23.988q1.562-12.713,3.237-25.406a4.409,4.409,0,0,0-2.8-5.139c-4.173-1.922-7.359-4.964-10.349-8.222-1.305-1.408-2.5-2.909-3.792-4.337-1.675-1.84-2.271-1.829-3.453.206-1.644,2.837-3.155,5.735-4.738,8.6a2.929,2.929,0,0,0-.226,3.155c1.028,1.737,0,3.083-1.233,4.306a8.931,8.931,0,0,1-5.642,2.559,5.611,5.611,0,0,0-3.556,1.542c-2.055,1.819-2.888,2.343-4.882,4.183-2.765,2.569-.617,20.709-.216,22.148,1.233,4.913,6.166,9.825,12.333,13.5,2.446,1.47,6.064,1.182,8.849,1.706.853.164,1.542.6,1.449,1.5a1.891,1.891,0,0,1-1.439,1.634,4.6,4.6,0,0,1-1.593.093c-1.459-.144-2.98-.832-4.378-.308-1.87.7-1.089,2.6-1.614,3.926a2.055,2.055,0,0,1-2.384,1.542c-1.11-.216-1.326-1.11-1.4-2.055a1.737,1.737,0,0,1,0-.73c1.346-3.577-.637-5.776-3.556-7.78a32.888,32.888,0,0,1-4.275-3.926,24.388,24.388,0,0,1-5.673-9.126s-3.71-18.407.5-23.792Zm89.774,87.173a3.825,3.825,0,0,0-1.028-.175c-6.043.966-6.578.647-7.688-4.8-.226-1.089-.308-2.2-.483-3.3-.257-1.511-.534-3.083-.853-4.8a4.019,4.019,0,0,0-1.665,3.279c-.5,4.111-2.169,7.862-3.916,11.614-.319.678-.524,1.4-.832,2.055-1.028,2.179-.4,4.111,1.1,5.868,2.055,2.446,8.818,4.111,11.8,2.826a3.278,3.278,0,0,0,2.056-2.138,36.75,36.75,0,0,0,1.511-10.432Zm-6.434-24c3.237-2.569,6.423-5.005,8.921-8.1,3.217-3.988,5.642-3.69,7.77.771.925,1.922,1.84,3.844,2.878,5.714.442.8.771,2.127,2.169,1.7,1.028-.329.863-1.5.74-2.3a35.354,35.354,0,0,1-.092-10.277c.37-2.682-.74-3.566-3.782-3.453s-6.166.5-9.25.74a3.8,3.8,0,0,0-2.867,1.819,44.346,44.346,0,0,0-6.485,13.392Zm-79.866-8.654c.565-.545.421-1.192.452-1.778.1-1.994,1.562-4.388-.822-5.817-2.055-1.223-4.111.329-6.033,1.089-5.612,2.21-5.653,2.271-2.261,6.958,1.418,1.953,2.323,4.3,4.738,6.166a15.56,15.56,0,0,0,0-5.283c-.144-1.387-1.326-3.217.73-3.926s2.127,1.665,3.2,2.59Z"/>
    <path id="パス_2872" data-name="パス 2872" d="M259.773,55.93a12.128,12.128,0,0,0,.668,3.2c1.439,2.919.277,5.57-.73,8.222a4.183,4.183,0,0,1-3.7,2.539c-1.624.216-2.364-.956-3.083-1.994-1.891-2.6-2.117-6.259.411-8.222,3.618-2.785,3.6-6.4,3.977-10.041.062-.617,0-1.244,0-1.86.144-2.7.473-3.022,3.453-3.7,3.392-.781,6.948-.884,10.277-2.169,1.47-.576,2.508.062,2.518,1.439a6.814,6.814,0,0,0,2.323,4.964c2.127,2.179,2.148,7.359.267,9.815-1.285,1.7-3.412,1.244-5.2,1.285s-2.467-1.316-2.765-2.744a6.609,6.609,0,0,1,.781-3.957,9.25,9.25,0,0,0,1.131-3.535c0-1.912-.812-2.8-2.909-2.713a25.416,25.416,0,0,0-4.358.74,2.4,2.4,0,0,0-1.984,2.055C260.493,51.449,260.143,53.648,259.773,55.93Z"/>
    <path id="パス_2873" data-name="パス 2873" d="M73.176,22.333c-2.271,0-3.813-1.511-3.618-3.618a5.406,5.406,0,0,1,3.083-4.245,16.629,16.629,0,0,1,2.384-1.11A1.932,1.932,0,0,0,76.454,10.9c-.308-1.624-.555-3.268-.75-4.913-.308-2.518.216-3.309,2.806-4.275,1.562-.565,3.145-1.131,4.738-1.6.771-.226,1.655-.164,1.984.7s-.37,1.336-1.1,1.665-1.665.658-2.467,1.028c-2.61,1.172-3.083,1.737-2.528,4.378.483,2.312.144,4.789,1.542,6.948a1.973,1.973,0,0,1,.154,1.2C80.555,18.345,75.673,22.343,73.176,22.333Z"/>
    <path id="パス_2874" data-name="パス 2874" d="M84.789,140c0-1.233-.072-2.467,0-3.7.072-1.028.36-2.055,1.8-2.055,1.172.062,1.387,1.028,1.511,1.891a6.68,6.68,0,0,1,0,1.11c-.483,9.517,3.33,17.862,8.3,25.909.257.421.6.822.863,1.244.678,1.028,1.665,2.3-.062,3.145-1.521.74-2.569-.4-3.217-1.5C89.219,157.913,84.676,149.64,84.789,140Z"/>
    <path id="パス_2875" data-name="パス 2875" d="M93.073,189.105a1.706,1.706,0,0,1-1.932,1.5,5.2,5.2,0,0,1-2.569-1.028c-4.964-2.857-8.068-7.194-11.028-11.634-.576-.874-.9-1.963.329-2.6s2.055.2,2.713,1.028,1.387,1.819,2.055,2.754c2.21,3.145,4.6,6.095,8.407,7.821C91.973,187.41,92.919,187.985,93.073,189.105Z"/>
    <path id="パス_2876" data-name="パス 2876" d="M261.767,169.753c-.462-2.169-.956-4.327-1.387-6.506-.288-1.48.206-2.292,2.056-2.384,4.029-.206,5.94-2.055,6.166-5.663a22.849,22.849,0,0,1,.226-3.669,1.11,1.11,0,0,1,2.056-.442A8.16,8.16,0,0,0,273.8,154c.606.288.462,1.1.277,1.716a12.548,12.548,0,0,0-.5,1.788c-.175,1.223-.463,2.662.678,3.484,1.336.966,2.055-.668,3.083-1.028a1.367,1.367,0,0,1,1.449.175c.236,1.8-.832,3.309-2.354,4.532-1.747,1.418-3.381,1.12-4.748-.637-.75-.946-.843-2.395-2.59-2.816-1.028,1.233.257,1.994.74,2.826,1.542,2.641,1.562,2.724-1.429,3.9-.668.267-1.213.5-1.408,1.161-.534,1.757-1.377,3.155-3.659,3.453-1.141.154-.781,1.141-.6,1.829.771,2.744,1.593,5.488,2.384,8.222a8.027,8.027,0,0,1,.606,3.628,1.757,1.757,0,0,1-1.47,1.572,1.49,1.49,0,0,1-1.757-1.182c-.576-1.912-1.028-3.844-1.562-5.755-.391-1.346-1.089-2.374-2.837-1.4-1.264.709-2.641.288-3.957.432-2.847.288-4.358-.7-4.687-3.083-.175-1.233.113-2.446,1.778-2.261,1.912.216,1.912-.8,2.055-1.973a15.54,15.54,0,0,1,.452-2.919c.935-3.165,2.456-3.587,5.139-1.459.781.637,1.521,1.326,2.282,1.984Z"/>
    <path id="パス_2877" data-name="パス 2877" d="M246.659,183.114a1.593,1.593,0,0,0,1.387.462c1.881.1,2.374.843,1.48,2.169a3.679,3.679,0,0,1-2.179,1.562,8.222,8.222,0,0,1-1.583.267c-1.48.051-2.59,1.583-4.183,1.028s-1.552-2.23-2.282-3.371c-.277-.432-.606-.874-1.182-.874a1.4,1.4,0,0,0-1.357,1.172,15.19,15.19,0,0,0-.092,6.629c.216,1.583.935,3.69-1.357,4.029s-2.61-1.984-2.693-3.433A61.664,61.664,0,0,0,230.1,178.52a1.357,1.357,0,0,1,.8-1.871c.956-.329,1.48.3,1.9.966.6.935.719,2.4,2.055,2.59,1.963.288,3.957-.3,5.981-.185,1.079,0,1.028-1.285,1.562-1.984.822-1.161,1.706-2.477,3.474-1.881s2.055,2.179,1.768,3.741a29.813,29.813,0,0,1-.987,3.217Z"/>
    <path id="パス_2878" data-name="パス 2878" d="M261.829,139.537a30.732,30.732,0,0,1,3.535-5.858c.781-1.028,1.819-2,3.371-1.316,1.367.606,1.634,1.87,1.593,3.165-.062,1.6-1.141,2.682-2.24,3.813-2.056,2.148-2.056,2.5.473,4.275.668.473,1.429.843,1.141,1.716a2.056,2.056,0,0,1-1.881,1.182,4.317,4.317,0,0,1-4.245-1.624c-.75-1.028-1.706-1.182-2.97-1.429-2.138-.421-3.864-1.028-4.44,1.747a1.624,1.624,0,0,1-1.932,1.028c-.925-.164-1.244-.863-1.459-1.6a2.591,2.591,0,0,1-.123-.73c.1-2.055-.956-4.512,1.326-5.838,1.994-1.151,4.111.051,6.043,1.028a2.436,2.436,0,0,0,1.809.442Z"/>
    <path id="パス_2879" data-name="パス 2879" d="M239.783,139.27c-.092-.894-.051-1.86,1.172-1.973s1.655.822,1.737,1.7c.391,3.947,1.459,7.78,2.189,11.665a3.977,3.977,0,0,1,.082,1.1,1.84,1.84,0,0,1-1.6,1.881c-1.213.164-1.706-.648-1.871-1.531-.38-1.942-.678-3.9-.935-5.848C240.256,143.936,240.04,141.6,239.783,139.27Z"/>
    <path id="パス_2880" data-name="パス 2880" d="M251.017,145.868c-.391,1.346.668,3.71-1.871,3.72-2.055,0-1.542-2.24-1.84-3.587a7.575,7.575,0,0,1-.092-2.549,1.809,1.809,0,0,1,1.675-1.8c1.141-.082,1.644.709,1.829,1.6A25.965,25.965,0,0,1,251.017,145.868Z"/>
    <path id="パス_2881" data-name="パス 2881" d="M247.687,136.187c1.141.257,2.5.545,2.4,1.9-.072,1.11-1.285,1.028-2.2.935s-2.251-.329-2.24-1.593C245.7,136.341,246.659,136.166,247.687,136.187Z"/>
    <path id="パス_2882" data-name="パス 2882" d="M157.718,139.054c.863,1.4,1.757,2.775,2.58,4.193a1.932,1.932,0,0,1,0,2.436,1.819,1.819,0,0,1-2.528.164c-.8-.514-1.326-.586-2.056.206-1.316,1.5-3.535,2.055-4.553,4.049-.853,1.644-2.7,1.9-4.563,1.387-.771-.206-1.47-.658-2.24-.822-1.686-.37-2.672.4-2.446,1.973.2,1.326.689,2.631.976,3.957a1.12,1.12,0,0,1-.668,1.244,1.357,1.357,0,0,1-1.737-.493,5.139,5.139,0,0,1-.894-1.644,4.193,4.193,0,0,0-4.2-3.309c-1.84-.154-2.271-1.49-.822-2.528,1.984-1.429,2-3.011,1.5-4.923a13.493,13.493,0,0,1-.288-2.58,3.34,3.34,0,0,1,2.7-3.659,12.765,12.765,0,0,1,5.139-.832c1.161.123,2.107.668,2.169,1.84s-.966,1.346-1.932,1.48c-.668.092-1.346.1-2.055.206-1.11.175-2.158.514-2.384,1.686a3.34,3.34,0,0,0,1.028,3.422,1.881,1.881,0,0,0,3-.73c.956-2.631,2.991-3.268,5.632-3.176a3.279,3.279,0,0,0,3.083-1.511c1.305-2.055,3.33-2.282,5.6-1.984Z"/>
    <path id="パス_2883" data-name="パス 2883" d="M144.912,178.376a7.544,7.544,0,0,1-.545,3.258,1.593,1.593,0,0,1-1.583.925,1.439,1.439,0,0,1-1.4-1.141,14.083,14.083,0,0,1-.1-2.189c-.123-2.282-.247-2.374-2.9-2.343-5.56.072-6.7-1.48-4.594-6.166a10.278,10.278,0,0,1,4.851-5.252,1.716,1.716,0,0,1,2.2.185c.617.719.226,1.418-.391,1.953-1.028.925-2.384,1.614-3.011,2.919-.7,1.47-.216,2.333,1.521,2.641a3.561,3.561,0,0,1,.8.062C144.522,173.689,144.974,174.152,144.912,178.376Z"/>
    <path id="パス_2884" data-name="パス 2884" d="M166.495,168.807c-3.905,0-6.053-2.364-5.612-5.766a8.9,8.9,0,0,1,1.028-3.905,4.183,4.183,0,0,1,5.19-1.583c1.737.761,2.343,2.4,1.562,4.409a10.742,10.742,0,0,1-.925,1.634c-.545.863-.709,1.624.606,2.055.884.257,1.994.391,1.614,1.624-.288.935-1.233,1.233-2.169,1.418a9.4,9.4,0,0,1-1.295.113Z"/>
    <path id="パス_2885" data-name="パス 2885" d="M154.254,170.945c.4-1.48-.226-2.055-1.984-2.354-2.055-.36-2.23-1.7-.627-2.8a14.832,14.832,0,0,1,3.186-1.572c2.21-.822,3.289-.339,3.669,1.871.267,1.572.3,2.806,2.631,2.9,1.449.062,1.429,1.274.637,2.23a9.249,9.249,0,0,1-3.2,2.2C155.416,174.943,154.234,174.254,154.254,170.945Z"/>
    <path id="パス_2886" data-name="パス 2886" d="M157.78,139.105a2.2,2.2,0,0,1,.452-3.022,5.467,5.467,0,0,0,1.583-2.055c.349-1.028.144-2.425,1.922-2.323,1.295.082,3.083,2.127,3.145,3.381,0,.236-.113.483-.113.719-.062,3,.236,3.361,3.4,3.741.8.092,1.716,0,1.942.894s-.524,1.583-1.387,2.055c-2.2,1.028-5.067.668-6.372-1.429-1.192-1.881-2.652-2.179-4.635-1.912Z"/>
    <path id="パス_2887" data-name="パス 2887" d="M152.106,174.491c0,1.377-.154,2.384-1.48,2.61-1.12.2-1.665-.617-2.055-1.418a16.6,16.6,0,0,1-.956-2.765c-.247-1.028-.072-2,1.213-2.333a1.829,1.829,0,0,1,2.2,1.151C151.48,172.733,151.8,173.782,152.106,174.491Z"/>
    <path id="パス_2888" data-name="パス 2888" d="M146.361,165.858c-1.12,0-2.343-.1-2.487-1.336s1.028-1.572,2.148-1.542,2.734,0,2.878,1.357C149.023,165.817,147.451,165.7,146.361,165.858Z"/>
    <path id="パス_2889" data-name="パス 2889" d="M159.773,80.925a1.418,1.418,0,0,1,2.055-1.028c4.892,2.713,7.41-.3,9.99-3.289.164-.2.3-.411.473-.6.7-.75,1.4-1.757,2.61-.853.9.668.493,1.6,0,2.343a26.9,26.9,0,0,1-5.7,6.166,6.783,6.783,0,0,1-8.664-1.028,2.415,2.415,0,0,1-.761-1.716Z"/>
    <path id="パス_2890" data-name="パス 2890" d="M173.854,45.282c-1.028,0-1.614.812-2.425,1.2s-1.562.555-2.179-.164a1.387,1.387,0,0,1,.257-2.055,17.471,17.471,0,0,1,2.847-2.59,3.69,3.69,0,0,1,4.748.432c1.655,1.418,2.23,3.34,2.909,5.2a1.552,1.552,0,0,1-1.028,2.138,1.973,1.973,0,0,1-2.425-.8,23.85,23.85,0,0,1-1.254-2.312,1.716,1.716,0,0,0-1.449-1.048Z"/>
    <path id="パス_2891" data-name="パス 2891" d="M153.258,63.258c-.082-1.624,1.583-3.155,3.628-3.34s3.792,1.028,3.813,2.5-1.994,3.494-3.957,3.679a3.083,3.083,0,0,1-3.484-2.837Z"/>
    <path id="パス_2892" data-name="パス 2892" d="M173.689,58.263c1.9,0,3.248,1.172,3.083,2.61a3.926,3.926,0,0,1-3.443,3.083,2.847,2.847,0,1,1,.319-5.684Z"/>
    <path id="パス_2893" data-name="パス 2893" d="M4.789,185.477a6.989,6.989,0,0,0,.349,1.829c.832,1.686.164,3.207-.411,4.748a2.415,2.415,0,0,1-2.138,1.439c-.925.134-1.357-.545-1.788-1.141-1.089-1.5-1.213-3.6.236-4.717,2.055-1.593,2.055-3.669,2.292-5.766v-1.028c.082-1.552.267-1.737,1.973-2.127,1.953-.452,4-.514,5.879-1.244.853-.339,1.449,0,1.449.822A3.977,3.977,0,0,0,14,181.109c1.223,1.254,1.244,4.224.154,5.642-.74.966-1.963.709-2.991.74s-1.418-.761-1.583-1.583a3.679,3.679,0,0,1,.452-2.271,5.293,5.293,0,0,0,.637-2.056c0-1.1-.462-1.6-1.665-1.562a15.036,15.036,0,0,0-2.508.421,1.408,1.408,0,0,0-1.141,1.213C5.2,182.939,4.995,184.162,4.789,185.477Z"/>
    <path id="パス_2894" data-name="パス 2894" d="M35.971,62.353c-3.083,0-5.313-2.23-5.313-6.053,0-5.2,3.905-9.846,9.373-12.261V42.353c0-1.562,0-3.083.082-4.645-2.189,0-4.6.082-6.906.082a1.377,1.377,0,0,1-1.49-1.531,1.295,1.295,0,0,1,1.367-1.4h7.194c0-1.367.123-2.775.236-3.988a1.367,1.367,0,0,1,1.48-1.244h.144c.946.072,1.326.5,1.326,1.244v.2c-.113,1.141-.185,2.343-.267,3.679a129.066,129.066,0,0,0,14.049-1.254h.308a1.346,1.346,0,0,1,1.408,1.285v.277a1.357,1.357,0,0,1-1.408,1.4c-4.337.586-9.25.946-14.645,1.141,0,1.439-.072,2.888-.072,4.368v1.028a25.529,25.529,0,0,1,6.67-.822c.154-.668.277-1.254.349-1.716a1.182,1.182,0,0,1,1.295-1.028.9.9,0,0,1,.308,0,1.223,1.223,0,0,1,1.254,1.2v.236c-.082.473-.2.976-.308,1.49,6.362,1.028,9.6,4.8,9.6,10.031,0,6.331-5.581,11.244-13.977,11.562h-.082a1.511,1.511,0,0,1-1.562-1.49v-.072a1.357,1.357,0,0,1,1.367-1.449c6.958-.349,10.976-3.977,10.976-8.705,0-3.905-2.425-6.721-6.989-7.307a30.4,30.4,0,0,1-6.516,12.549c.2.462.38.976.658,1.562a1.655,1.655,0,0,1,.2.781,1.459,1.459,0,0,1-.853,1.326,2.23,2.23,0,0,1-.781.2,1.213,1.213,0,0,1-1.141-.7c-.154-.308-.308-.7-.462-1.028a10.74,10.74,0,0,1-6.865,2.744Zm4.214-15.468c-4.3,2.3-6.557,5.971-6.557,9.25,0,2.148,1.131,3.2,2.734,3.2a8.684,8.684,0,0,0,5.509-2.58,39.414,39.414,0,0,1-1.737-9.866ZM49.013,44.7a17.688,17.688,0,0,0-6.053.935,36.568,36.568,0,0,0,1.161,8.839A26.958,26.958,0,0,0,48.962,44.7Z"/>
    <path id="パス_2895" data-name="パス 2895" d="M39.28,71.336v.113c-.2,5.745-.514,12.652-.514,18.9,0,3.669.473,5.7,1.727,6.917s3.237,1.634,5.93,1.634a11.408,11.408,0,0,0,8.356-3.32A18.572,18.572,0,0,0,58.89,87.8a1.583,1.583,0,0,1,1.48-1.326A1.706,1.706,0,0,1,61,86.6a1.634,1.634,0,0,1,1.213,1.6,2.056,2.056,0,0,1-.123.658,21.346,21.346,0,0,1-5.139,9.373,14.748,14.748,0,0,1-10.586,4.111c-3.669,0-6.4-.863-8.314-2.693s-2.61-4.3-2.61-9.25c0-6.053.2-13.278.462-19.013a1.572,1.572,0,0,1,1.686-1.644h.072a1.49,1.49,0,0,1,1.624,1.593Z"/>
    <path id="パス_2896" data-name="パス 2896" d="M36.269,127.811A20.082,20.082,0,0,1,50.133,122.5c6.68,0,10.781,3.751,10.781,8.859,0,6.166-5.55,10.082-15.036,10.082A31.491,31.491,0,0,1,37.05,140.3a1.624,1.624,0,0,1-1.244-1.552,2.384,2.384,0,0,1,0-.473,1.49,1.49,0,0,1,1.449-1.172,2.5,2.5,0,0,1,.545.082,32.23,32.23,0,0,0,8.006,1.028c7.194,0,11.716-2.652,11.716-6.989,0-2.96-2.621-5.663-7.574-5.663a17.852,17.852,0,0,0-13.165,5.355,2.806,2.806,0,0,1-1.984,1.028,2.857,2.857,0,0,1-.586-.072,1.634,1.634,0,0,1-1.326-1.912,1.963,1.963,0,0,1,0-.473,99.145,99.145,0,0,1,2.148-12.148,1.48,1.48,0,0,1,1.48-1.326,1.028,1.028,0,0,1,.349,0c.822.113,1.336.586,1.336,1.326a1.881,1.881,0,0,1,0,.473c-.709,2.96-1.367,6.084-1.521,7.338a13.721,13.721,0,0,1-.555,2.5Zm18.5-16.362a1.675,1.675,0,0,1,1.572,1.6v.2a1.686,1.686,0,0,1-1.757,1.531h-.113a92.642,92.642,0,0,1-15.622-2.58,1.5,1.5,0,0,1-1.131-1.49,2.5,2.5,0,0,1,.082-.545,1.542,1.542,0,0,1,1.829-1.223,93.269,93.269,0,0,0,15.149,2.508Z"/>
    <path id="パス_2897" data-name="パス 2897" d="M32.888,150.308c1.254,0,1.572.658,1.572,1.634v5.005c0,2.5,0,4.841.154,6.629.391,4.687,1.028,7.7,2.22,10.041a3.022,3.022,0,0,0,2.384,1.757,2.477,2.477,0,0,0,2.23-1.213,14.943,14.943,0,0,0,1.912-5.93c.154-.976.586-1.408,1.4-1.408a1.326,1.326,0,0,1,.4,0,1.459,1.459,0,0,1,1.48,1.521,1.028,1.028,0,0,1,0,.349,17.523,17.523,0,0,1-2.847,7.965,5.509,5.509,0,0,1-4.337,2.3,5.591,5.591,0,0,1-4.728-2.734c-1.7-2.539-2.867-6.752-3.3-12.415-.236-3.083-.267-7.688-.267-11.87a1.562,1.562,0,0,1,1.727-1.634Zm21.583,1.984a1.542,1.542,0,0,1,1.326.781,41.5,41.5,0,0,1,7.071,19.64v.277a1.644,1.644,0,0,1-1.367,1.871,1.727,1.727,0,0,1-.432,0,1.521,1.521,0,0,1-1.6-1.521,39.229,39.229,0,0,0-6.444-18.5,1.881,1.881,0,0,1-.308-1.028,1.408,1.408,0,0,1,.822-1.285A1.706,1.706,0,0,1,54.471,152.291Z"/>
    <rect id="長方形_6884" data-name="長方形 6884" width="520" height="440" transform="translate(-78.032 -168.088)" fill="none"/>
  </g>
</svg>
