<svg xmlns="http://www.w3.org/2000/svg" width="520" height="440" viewBox="0 0 520 440">
  <g id="img_color" transform="matrix(0.996, -0.087, 0.087, 0.996, 13.371, 157.418)">
    <path id="パス_2829" data-name="パス 2829" d="M159.169,118.233c.639.65,1.467.346,2.232.346a50.978,50.978,0,0,1,12.951,1.76c1.184.3,2.368.692,1.97,2.1s-1.687,1.216-2.819.87c-3.668-1.121-7.482-1.236-11.254-1.645a21.941,21.941,0,0,0-3.144-.126c-3.269.094-4.977,2.1-4.191,5.009a12.49,12.49,0,0,0,1.813,4.129,2.808,2.808,0,0,0,2.442,1.551,5.239,5.239,0,0,1,4.349,2.263c3.007,3.647,5.774,7.482,9.1,10.908.073.084.136.178.2.262a1.488,1.488,0,0,1-.168,2.274c-.954.765-1.76.231-2.316-.513-1.97-2.641-4.831-4.632-6.465-7.513a10.9,10.9,0,0,0-1.959-2.232,1.415,1.415,0,0,0-2.1,0,6.5,6.5,0,0,0-.482.44,128.126,128.126,0,0,1-10.479,9.431,2.861,2.861,0,0,0-.891,3.929,65.607,65.607,0,0,0,4.129,7.691c3.762,5.868,7.922,11.526,11.338,17.583,1.32,2.358,2.62,4.747,4.883,6.56.964.765,1.457,1.834.272,2.7s-2.1.073-2.913-.807a51.574,51.574,0,0,1-4.757-6.675c-3.8-5.847-7.566-11.726-11.422-17.541-2.1-3.2-3.72-6.622-5.575-9.934-.9-1.6-.859-3.144.681-4.286,1.739-1.31,1.394-2.567.283-4.118-2.546-3.542-5.575-6.811-7.335-10.8a18.652,18.652,0,0,1-1.519-4.537,7.461,7.461,0,0,1,4.244-8.551c.891-.461,1.75-.975,2.6-1.509a8.383,8.383,0,0,0,4.349-6.78c.073-1.257.272-2.515.335-3.783a15.9,15.9,0,0,1,3.678-9.315c1.718-2.169.786-5.742-1.739-7.241a2.63,2.63,0,0,0-2.578.073c-2.295.9-2.515.817-3.688-1.236-1.048-1.886-2.022-3.835-3.07-5.732a20.957,20.957,0,0,0-5.679-6.78c-1.771-1.352-3.206-3.07-4.852-4.569a11.432,11.432,0,0,0-5.313-2.892c-3.039-.66-5.711-.44-7.586,2.169A7.974,7.974,0,0,1,112.329,74a13.2,13.2,0,0,0-6.581,4.778,36.214,36.214,0,0,0-5.3,8.383A13.758,13.758,0,0,0,100,97.978c.775,1.928,1.32,3.51-1.446,4.59-1.488.576-1.5,2.232-1.048,3.657.566,1.781,2.452,3.584,4.191,3.3,3.426-.555,4.81,1.278,6.1,3.563a20.486,20.486,0,0,0,6.622,7.335,15.917,15.917,0,0,0,8.687,2.8c4.736.073,6.6,1.6,7.628,5.9a47.655,47.655,0,0,1,.985,7.88c.126,1.582.283,3.144.409,4.747.1,1.247.43,2.211,2.1,2.441,1.436.21,1.855,1.467,2.368,2.546a27.244,27.244,0,0,1,1.991,7.387c1.687,10.049,3.73,20.045,4.7,30.168a27.621,27.621,0,0,1-1.708,13.4,3.144,3.144,0,0,0,.943,4,14.578,14.578,0,0,0,2.1,1.7c6.34,3.95,12.627,7.953,18.778,12.155.828.566,1.834.891,2.735,1.383a11.12,11.12,0,0,1,2.263,1.446c.807.775,1.614,1.823.692,2.808s-1.834,0-2.7-.461c-8.11-4.37-15.351-9.934-23.168-14.67a29.179,29.179,0,0,1-2.662-2.1c-1.739-1.31-3.28-3.28-5.6-1.425s-5.438,1.5-8.571,1.153-7-2.662-11.118-6.8c-2.735-2.756-5.449-5.522-8.027-8.383a56.888,56.888,0,0,1-10.971-18.337c-3.144-8.519-1.907-16.43,3-23.964a42.364,42.364,0,0,1,7.7-8.383c1.991-1.771,1.939-2.1-.272-3.584a9.043,9.043,0,0,0-3.144-1.394c-1.226-.293-2.421-.692-3.626-1.048-5.522-1.792-9.64-4.852-11.631-10.175a57.633,57.633,0,0,1-3.458-11.977c-1.111-7.754-3.573-15.32-4.024-23.2a47.153,47.153,0,0,1,3.563-20.716,15.718,15.718,0,0,1,4.38-5.543c4.988-4.527,11.4-6.465,17.908-8.11a44.408,44.408,0,0,1,23.126.178A30.493,30.493,0,0,1,144.1,60.339c5.292,5.543,10.154,11.359,13.392,18.2a59.384,59.384,0,0,0,6.235,9.955c2.756,3.72,4.307,8.006,5.7,12.27a7.8,7.8,0,0,1-1.509,6.937c-2.379,3.406-4.191,7.262-8.236,9.431A.87.87,0,0,0,159.169,118.233ZM119,148.055c2.211.576,5.019,0,7.859-.4a2.1,2.1,0,0,0,2.1-2.347,90.849,90.849,0,0,0-.964-12.951c-.65-5.313-1.153-5.669-7.031-6.287a15.8,15.8,0,0,1-8.844-3.322c-2.442-2.1-5.009-4.191-6.528-7a6.151,6.151,0,0,0-1.257-1.519c-.807-.754-1.5-.492-1.771.419a3.908,3.908,0,0,0,0,1.876c.524,2.7,1.132,5.407,1.677,8.11.985,4.8,4.632,7.408,9.106,9.336a13.832,13.832,0,0,0,1.949.681,3.018,3.018,0,0,1,2.588,3.28c0,1.477.1,2.955.115,4.432a4.694,4.694,0,0,1-.566,2.452c-.377.65-.765,1.373-1.781,1.132a1.436,1.436,0,0,1-1.048-1.488,11.84,11.84,0,0,1,.157-2.5c.241-1.341.859-2.882-.775-3.72s-2.735.566-3.846,1.394a32.483,32.483,0,0,0-5.92,5.627c-6.224,7.628-8.215,16.022-4.411,25.3,4.6,11.2,12.438,20.328,22.12,28.2a13.256,13.256,0,0,0,4.254,2.1c2.232.713,4.569.891,6.612-.461a13.675,13.675,0,0,0,5.868-7.492,32.746,32.746,0,0,0,.629-16.263,95.972,95.972,0,0,1-2.148-12.857c-.272-4.464-1.918-8.718-2.724-13.1-.21-1.174-.7-2.1-2.305-1.352-4.9,2.284-10.143,2.211-15.456,1.593-2.9-.346-3.259-.147-3.227,2.5,0,3.8.251,7.6.4,11.4.073,2.1.22,4.191.241,6.287,0,.964-.21,2.1-1.593,2.012s-1.572-1.142-1.645-2.1c-.1-1.477-.063-2.955-.1-4.432-.178-5.6-1.048-11.17-.692-16.766.178-3.091.838-3.615,3.95-2.724a33.366,33.366,0,0,0,5.019.954ZM158.487,113.3a2.5,2.5,0,0,0,2.033-1.163,41.192,41.192,0,0,0,4.286-5.658,8.121,8.121,0,0,0,.587-8.194c-1.687-3.835-3.28-7.691-6.287-10.971a19.521,19.521,0,0,1-2.871-4.715,80.4,80.4,0,0,0-13.926-20.15,26.2,26.2,0,0,0-11.6-7.335c-11.139-3.406-21.827-2.1-32.085,2.316-4.474,1.939-8.551,4.5-10.741,8.833a33.531,33.531,0,0,0-3.971,16.189A63,63,0,0,0,85.462,96a69.158,69.158,0,0,1,1.75,8.383,59.1,59.1,0,0,0,5.239,18.044,11.128,11.128,0,0,0,6.7,5.669c1.561.576,2.2.1,1.939-1.425s-.744-2.882-1.048-4.338c-.5-2.5-1.394-5-1.153-7.513a4.087,4.087,0,0,0-1.614-3.846c-3.825-3.468-4.191-6.381-1.593-10.479a3.678,3.678,0,0,0,.545-3.542,13.308,13.308,0,0,1,.461-9.3,40.017,40.017,0,0,1,7.964-12.428,12.574,12.574,0,0,1,5.093-3.594,14.806,14.806,0,0,0,5.837-3.688,5.826,5.826,0,0,1,3.406-2c4.191-.545,8.5-.293,11.631,2.693s6.664,5.617,9.431,8.9a35.157,35.157,0,0,1,4.024,6.287c.9,1.635,1.844,2.913,4.191,2.462a3.657,3.657,0,0,1,2.861.943c2.1,1.635,3.751,3.437,3.919,6.13.084,1.341-.147,2.787.807,4,2.892,3.72,3.217,7.859,2.672,12.155a7.89,7.89,0,0,0-.031,3.793Zm-2.84-3.751a22.9,22.9,0,0,0-.231-6.287c-.126-.807-.136-1.907-1.163-2.1-1.236-.3-1.677.838-2.274,1.572a7.869,7.869,0,0,0-1.519,5.407c.178,5.69-2.19,9.976-7.566,12.773-.2.1-.346.272-.545.388-3.73,2.1-3.521,5.355-2.441,8.027,1.865,4.642,5,8.613,8.089,12.574a1.75,1.75,0,0,0,2.892.178c1.048-.954,2.022-1.98,2.976-3.028,2.7-2.965,2.609-2.934.388-6.182-2.337-3.426-3.709-6.926-2.012-11.076a59.782,59.782,0,0,0,3.364-12.249Z" transform="translate(-1.309 -0.821)"/>
    <path id="パス_2830" data-name="パス 2830" d="M377.169,232.079c-1.153-.136-1.991-.377-2.1-1.247s.66-1.257,1.478-1.425c3.353-.681,6.675-1.519,10.07-1.959,10.678-1.373,21.125-3.7,31.666-5.637,12-2.2,24.017-4.349,36.015-6.6,9.19-1.729,18.348-3.573,27.517-5.365.335-.073.671-.168,1.048-.22.985-.168,2.1-.629,2.714.566.482.933-.325,2-2.012,2.41q-4.485,1.048-9.022,1.928c-13.622,2.578-27.339,5.166-41.013,7.681-11.327,2.1-22.717,3.94-34,6.193-6.591,1.31-13.413,1.519-19.909,3.343A14.943,14.943,0,0,1,377.169,232.079Z" transform="translate(-6.081 -3.396)"/>
    <path id="パス_2831" data-name="パス 2831" d="M393.355,246.613c7.461,1.048,15.613.786,23.776.828,9.431,0,18.861.314,28.24.44,7.115.094,14.24.126,21.355.2,6.664.063,13.329.22,19.972.723,1.268.094,3-.21,3.322,1.561.2,1.1-1.121,1.718-3.531,1.54-11.359-.87-22.728-.5-34.087-.817-10.793-.3-21.586-.671-32.379-.744-7,0-14-.052-20.957-.524-6.193-.409-12.323-1.593-18.547-1.76-.828,0-1.708-.231-1.781-1.163s.817-1.205,1.635-1.236a35.23,35.23,0,0,1,4.464,0C387.434,245.9,390.054,246.246,393.355,246.613Z" transform="translate(-6.141 -3.982)"/>
    <path id="パス_2832" data-name="パス 2832" d="M103.195,216.752c0,.66-.629.922-1.331,1.048a4.1,4.1,0,0,1-2.913-.8c-8.729-5.019-17.96-9.274-26.2-15.016-2.85-1.98-6.078-3.51-9.137-5.239-11.589-6.455-23.137-12.983-34.988-19.029-5.166-2.63-10.049-5.7-15.236-8.309a69.292,69.292,0,0,0-6.465-3.081,23.41,23.41,0,0,1-2.819-1.236c-1.048-.576-2.609-1.247-1.865-2.6.849-1.53,2.19-.335,3.248.126,7.052,3.018,13.423,7.146,20.255,10.479,15.288,7.66,29.906,16.284,44.838,24.426,2.683,1.467,5.239,3.217,7.817,4.768,7.031,4.191,14.377,7.775,21.586,11.621.8.43,1.593.88,2.347,1.373a1.635,1.635,0,0,1,.859,1.467Z" transform="translate(-0.033 -2.623)"/>
    <path id="パス_2833" data-name="パス 2833" d="M94.5,234.893c-6.8-1.174-13.423-3.007-20.077-4.778-6.2-1.645-12.438-3.144-18.505-5.239-6.287-2.159-12.574-4.191-18.861-6.381-5.376-1.9-11-3.144-16.525-4.684-1.54-.43-3.144-.8-4.652-1.236a16.326,16.326,0,0,1-2.578-.912c-.817-.388-1.76-.922-1.31-1.939s1.373-.587,2.1-.377c8.823,2.515,17.814,4.5,26.437,7.586a235.179,235.179,0,0,0,25.9,8.058c9.148,2.148,18.034,5.292,27.38,6.727a18.861,18.861,0,0,1,3.961,1.153,1.415,1.415,0,0,1,1.048,1.792c-.293.912-1.121.9-1.959.723Z" transform="translate(-0.193 -3.39)"/>
    <path id="パス_2834" data-name="パス 2834" d="M52.909,142.065l.681.073c2.1.178,3.468,1.582,5.176,2.379s3.343-1.32,5.459-1.048c4.747.681,7.859,4.485,6.968,9.033a15.6,15.6,0,0,1-2.62,6.1,69.785,69.785,0,0,1-6.874,7.765c-1.593,1.656-2.452,1.53-4.422.325-5.91-3.636-9.693-8.729-12.428-14.6C42.315,146.707,46.611,141.332,52.909,142.065Zm15.561,9.5a4,4,0,0,0-2.683-4.506,4.191,4.191,0,0,0-4.925.985c-1.446,1.341-1.959,1.195-3.343-.22-.314-.314-.545-.692-.849-1.048-1.939-2.1-4.663-2.683-6.727-1.561a4.726,4.726,0,0,0-2.033,6.287,27.821,27.821,0,0,0,6.025,9.211c3.72,3.7,5.554,3.783,9.137.178,2.609-2.462,4.768-5.229,5.4-9.326Z" transform="translate(-0.715 -2.303)"/>
    <path id="パス_2835" data-name="パス 2835" d="M147.913,32.425c.451-3.206,1.781-5.837,5.323-7.073,2.693-.933,5.292-.723,7.335,1.216a4.191,4.191,0,0,0,4.789,1.142c3.563-1.132,5.983.251,7.125,3.6a11.684,11.684,0,0,1-5.753,13.916c-3.626,2-7.786,2.944-11.621,4.537a2.148,2.148,0,0,1-3.144-1.048c-1.865-4.673-4.024-9.284-4.108-14.356C147.882,33.693,147.9,33.064,147.913,32.425Zm22.393,3.94a7.775,7.775,0,0,0-.44-4.191c-.775-1.876-2.1-2.421-4.076-1.739-.639.22-1.216.576-1.855.807-2.159.817-2.6.8-3.971-1.111a4.474,4.474,0,0,0-4.988-1.98,4.349,4.349,0,0,0-3.51,3.835c-.859,4.537.388,8.812,2.18,13a2.2,2.2,0,0,0,3.049,1.268,44.953,44.953,0,0,0,8.781-3.479,9.148,9.148,0,0,0,4.831-6.413Z" transform="translate(-2.397 -0.403)"/>
    <path id="パス_2836" data-name="パス 2836" d="M396.576,260.644c2.483.8,5.449,1.687,8.383,2.693,11.893,4.129,23.912,7.869,36.13,11.034a54.06,54.06,0,0,1,6.151,2.148c.891.356,1.656.943,1.331,1.949-.377,1.174-1.5,1.236-2.536.922-3.385-1.048-6.7-2.358-10.133-3.206-13.161-3.28-25.693-8.309-38.708-11.977-1-.272-2.012-.472-3.007-.754s-1.76-.754-1.561-1.792,1.132-1.216,2.1-1.216C395.172,260.455,395.633,260.539,396.576,260.644Z" transform="translate(-6.366 -4.223)"/>
    <path id="パス_2837" data-name="パス 2837" d="M404.1,190.3a2.3,2.3,0,0,1,1.268-1.4c3.081-1.97,6.193-3.9,8.289-6.884a1.718,1.718,0,0,1,2.1-.7,1.5,1.5,0,0,1,1.048,1.54,18.558,18.558,0,0,0,3.29,10.238c.88,1.425.5,2.41-.985,3.144a21.346,21.346,0,0,0-4.684,3.144,10.751,10.751,0,0,0-2.882,4.191c-.4.912-.975,1.771-2.242,1.572a2.1,2.1,0,0,1-1.771-2.389,18.432,18.432,0,0,0-.744-6.287,13.161,13.161,0,0,0-2.043-4.391,2.211,2.211,0,0,1-.639-1.771Zm8.551-2.745a14.24,14.24,0,0,0-3.626,2.525,1.5,1.5,0,0,0-.356,1.76c.576,1.6,1.153,3.217,1.76,4.82.283.754.807.964,1.582.534,3.846-2.1,4.328-3.447,2.578-7.471-.22-.492-.43-.985-.681-1.467a1.257,1.257,0,0,0-1.257-.7Z" transform="translate(-6.552 -2.938)"/>
    <path id="パス_2838" data-name="パス 2838" d="M487.664,39.537a1.53,1.53,0,0,1,1.614,1.4A17.624,17.624,0,0,0,492.6,49.89a2.284,2.284,0,0,1-.251,2.944,39.013,39.013,0,0,0-6.78,11.107,4.045,4.045,0,0,1-.7,1.048,1.656,1.656,0,0,1-2.1.66,1.394,1.394,0,0,1-.765-1.635,18.211,18.211,0,0,0-.461-7.209A12.826,12.826,0,0,0,479,51.3c-1.792-2.19-1.75-2.536.461-4.1a24.531,24.531,0,0,0,6.109-6.2C486.1,40.3,486.616,39.579,487.664,39.537Zm-2.787,16.64a5.009,5.009,0,0,0,2.452-2.1c2.483-2.924,2.473-3.28.314-6.371-1.436-2.043-1.561-2.1-3.563-.44-.87.723-2.557,1.352-1.855,2.662C483.294,51.9,483.745,54.082,484.876,56.177Z" transform="translate(-7.746 -0.642)"/>
    <path id="パス_2839" data-name="パス 2839" d="M348.445,45.95a1.865,1.865,0,0,1,1.76,2.1,16.484,16.484,0,0,0,1.53,6.486,25.961,25.961,0,0,0,1.645,2.8,1.718,1.718,0,0,1-.733,2.683c-1.048.629-2.1,1.278-3.081,1.959a10.039,10.039,0,0,0-4.191,5.176,8.614,8.614,0,0,1-.817,1.718,1.467,1.467,0,0,1-1.75.66,1.362,1.362,0,0,1-1.048-1.184,2.189,2.189,0,0,1,0-.639c.3-3.584-.912-6.895-2.578-10.08a2.1,2.1,0,0,1,.828-3.248c2.829-1.823,5.239-3.971,6.476-7.073a2.211,2.211,0,0,1,1.96-1.352ZM349.492,57.6a12.1,12.1,0,0,0-2.4-4.275c-.451-.461-1.048-.189-1.54.126-2.84,1.739-3.437,4.7-1.436,7.335a1.435,1.435,0,0,0,.775.545c.9.189,4.422-2.6,4.558-3.73Z" transform="translate(-5.492 -0.746)"/>
    <path id="パス_2840" data-name="パス 2840" d="M72.615,110.05c-.22,2.1-1.509,3.688-2.756,5.3a10.6,10.6,0,0,0-2.305,3.762,2.316,2.316,0,0,1-4.013.807c-2.85-2.9-6.067-5.585-7.712-9.326-.734-1.677-1.666-3.447-.189-5.061a6.224,6.224,0,0,1,5.91-1.729,13.538,13.538,0,0,0,5.355.115C70.415,103.207,73.108,106.246,72.615,110.05Zm-2.955.178c.335-2.546-.859-3.647-3.144-3.007a8.288,8.288,0,0,1-4.967-.2c-2.368-.723-3.542.43-2.882,2.651a12.857,12.857,0,0,0,4.914,6.381,1.425,1.425,0,0,0,1.876,0,13.13,13.13,0,0,0,4.2-5.826Z" transform="translate(-0.889 -1.681)"/>
    <path id="パス_2841" data-name="パス 2841" d="M17.751,6.381c-.22,2.1-1.5,3.7-2.745,5.313A10.374,10.374,0,0,0,12.7,15.455a2.326,2.326,0,0,1-4.024.8c-2.84-2.9-6.057-5.585-7.7-9.326C.231,5.239-.692,3.478.786,1.865A6.214,6.214,0,0,1,6.7.136,13.339,13.339,0,0,0,12.05.251C15.561-.462,18.254,2.588,17.751,6.381Zm-2.944.178c.325-2.546-.87-3.636-3.144-3a8.383,8.383,0,0,1-4.956-.21c-2.41-.723-3.563.44-2.924,2.662a12.983,12.983,0,0,0,4.9,6.381,1.436,1.436,0,0,0,1.886,0,13.234,13.234,0,0,0,4.233-5.837Z" transform="translate(0 0)"/>
    <path id="パス_2842" data-name="パス 2842" d="M497.209,64.471a1.76,1.76,0,0,1,1.53,1.54,46.8,46.8,0,0,0,1.331,6.549c.293.954-.272,1.614-1.048,2.169-1.949,1.477-3.856,2.965-4.108,5.543a2.232,2.232,0,0,1-1.174,1.457c-1.278.786-2.892.272-2.787-1.048a31.014,31.014,0,0,0-.367-8.8,1.541,1.541,0,0,1,.492-1.132,34.262,34.262,0,0,0,4.066-5.407A2.033,2.033,0,0,1,497.209,64.471Z" transform="translate(-7.954 -1.045)"/>
    <path id="パス_2843" data-name="パス 2843" d="M366.278,118.826a1.4,1.4,0,0,1-1.153,1.5,1.708,1.708,0,0,1-1.949-1.048,45.271,45.271,0,0,0-3.971-6.664,2.1,2.1,0,0,1,.493-3.144c1.153-.7,2.19.1,3.07.8C365.618,112.518,366.174,115.5,366.278,118.826Z" transform="translate(-5.816 -1.771)"/>
    <path id="パス_2844" data-name="パス 2844" d="M131.086,116.5a9.734,9.734,0,0,1-3.552-1.174c-1.341-.838-1.236-2.263.335-2.557a12.5,12.5,0,0,0,6.067-2.452c1.048-.891,2.473,0,2.651,1.341C136.922,114.469,134.083,116.953,131.086,116.5Z" transform="translate(-2.053 -1.783)"/>
    <path id="パス_2845" data-name="パス 2845" d="M366.02,138.836c-3.909-.409-6.224-2.578-6.455-5.805-.063-.87,0-1.781,1.048-2.1s1.708.492,1.918,1.331c.629,2.567,2.672,3.217,5.114,3.489,1.195.136,2.892.084,2.745,1.718s-1.7,1.415-2.965,1.446C366.858,138.93,366.292,138.846,366.02,138.836Z" transform="translate(-5.83 -2.122)"/>
    <path id="パス_2846" data-name="パス 2846" d="M287.3,158.953a3.049,3.049,0,0,1,1.425-1.687c1.216-.786,1.278-1.572.115-2.515-.723-.576-1.362-1.3-.587-2.159s1.666-.44,2.494-.063a10.815,10.815,0,0,1,2.022,1.195c2,1.561,2.1,2.787.1,4.411a9.66,9.66,0,0,1-3.626,2.242C288.019,160.692,287.065,159.98,287.3,158.953Z" transform="translate(-4.658 -2.466)"/>
    <path id="パス_2847" data-name="パス 2847" d="M385.463,124.871c-.126,1.886-1.53,2.965-3.7,2.85s-3.227-1.048-3.081-2.672a4.254,4.254,0,0,1,4-3.657,3.144,3.144,0,0,1,2.777,3.479Z" transform="translate(-6.14 -1.969)"/>
    <path id="パス_2848" data-name="パス 2848" d="M132.031,95.908c-1.907-.241-2.829-1.142-2.693-2.641.157-1.8,2.462-3.814,4.034-3.531a3.72,3.72,0,0,1,2.588,3.709C135.772,95.217,134.21,96.191,132.031,95.908Z" transform="translate(-2.097 -1.455)"/>
    <path id="パス_2849" data-name="パス 2849" d="M390.781,112.3a3.835,3.835,0,0,1,2.557,1.048c.409.409.713.859.472,1.425a1.236,1.236,0,0,1-1.32.807,15.11,15.11,0,0,0-6.7.975c-.912.283-1.9.22-2.242-.849-.283-.859.335-1.4,1.048-1.729a27.944,27.944,0,0,1,6.182-1.677Z" transform="translate(-6.218 -1.821)"/>
    <path id="パス_2850" data-name="パス 2850" d="M128.009,83.257a10.625,10.625,0,0,1-4.862-1.582c-.692-.472-1.111-1.111-.629-1.907a1.32,1.32,0,0,1,1.781-.44,18.631,18.631,0,0,0,5.522,1.593c.828.126,1.54.608,1.373,1.509-.136.733-.849.922-1.561.922S128.281,83.268,128.009,83.257Z" transform="translate(-1.983 -1.284)"/>
    <path id="パス_2851" data-name="パス 2851" d="M112.079,97.789a2.578,2.578,0,0,1,1.949,2.965,2.4,2.4,0,0,1-2.672,2.274c-1.593-.094-2.861-1.153-2.777-2.316a3.835,3.835,0,0,1,3.5-2.924Z" transform="translate(-1.76 -1.586)"/>
    <path id="パス_2852" data-name="パス 2852" d="M106.758,88.39a1.729,1.729,0,0,1,.272-.576q1.939-1.7,3.909-3.353a1.2,1.2,0,0,1,1.268-.136,1.142,1.142,0,0,1,.65,1.32c-.2,1.488-3.144,4.066-4.642,4.087C107.281,89.731,106.747,89.28,106.758,88.39Z" transform="translate(-1.731 -1.366)"/>
    <path id="パス_2853" data-name="パス 2853" d="M127.334,103.317c.775.147,1.425.493,1.436,1.394s-1.278,1.9-2.662,1.8c-.922-.063-1.5-.472-1.477-1.362C124.62,104.029,125.951,103.149,127.334,103.317Z" transform="translate(-2.021 -1.675)"/>
    <path id="パス_2854" data-name="パス 2854" d="M236.344,69.952c-1.939-.692-4.191-.922-5.952-2.232-.66-.482-1.226-1.048-.859-1.9s1.257-.775,2.1-.545,1.54.461,2.284.744c2.452.943,4.841,1.3,7.167-.241.733-.492,1.708-.87,2.431,0s.251,1.823-.66,2.421A8.98,8.98,0,0,1,236.344,69.952Z" transform="translate(-3.72 -1.056)"/>
    <path id="パス_2855" data-name="パス 2855" d="M229.331,40.922a1.97,1.97,0,0,1,1.834,1.048c.419.964-.21,1.593-.975,2.1a7.628,7.628,0,0,1-3.437,1.195c-1.572.147-3.29-1.195-3.28-2.578,0-1.645,1.383-1.582,2.672-1.593C227.162,41.037,228.179,40.974,229.331,40.922Z" transform="translate(-3.623 -0.664)"/>
    <path id="パス_2856" data-name="パス 2856" d="M235.03,56.406a3.28,3.28,0,0,1,1.048-2.221A2.274,2.274,0,0,1,238.6,53.9c1.048.451,1.677,1.174,1.467,2.253a4.432,4.432,0,0,1-.723,1.718c-.629.943-1.048,2.18-2.683,1.991C235.606,59.686,234.831,57.988,235.03,56.406Z" transform="translate(-3.81 -0.87)"/>
    <path id="パス_2857" data-name="パス 2857" d="M254.142,48.079c-1.341-.189-2.745-.262-3.72-1.341a1.6,1.6,0,0,1-.409-2.012c.4-.65,1.048-.639,1.781-.492,1.446.314,2.892.608,4.317.975,1.048.272,2.1.744,1.834,1.918s-1.362,1.132-2.41,1.1C255.043,48.2,254.593,48.131,254.142,48.079Z" transform="translate(-4.051 -0.716)"/>
    <path id="パス_2858" data-name="パス 2858" d="M90.313,247.616c-2.609,0-5.711,0-8.792-.094-12.574-.43-25.149-.44-37.723.157a53.728,53.728,0,0,1-6.507-.241c-.964-.073-1.865-.409-1.855-1.467,0-1.236,1.048-1.624,2.148-1.624,3.542,0,7.094.262,10.636.063,13.538-.765,27,.335,40.521,0,1.048,0,2.1-.147,3.144-.157s1.907.2,2.012,1.247-.713,1.5-1.656,1.781C91.738,247.386,91.235,247.438,90.313,247.616Z" transform="translate(-0.575 -3.959)"/>
    <path id="パス_2859" data-name="パス 2859" d="M62.2,26.212c.681.073.933.629.859,1.341s-.472,1.268-1.142,1.195L36.162,25.866c-1.31-.136-1.792.283-1.918,1.394C33.7,32.09,32.882,38.681,32,42.978a29.654,29.654,0,0,1-5.868,12.731,1.53,1.53,0,0,1-1.352.608,1.656,1.656,0,0,1-.943-.472,1.216,1.216,0,0,1-.555-1.142,1.645,1.645,0,0,1,.513-.985A26.532,26.532,0,0,0,29.487,41.5v-.157a21.775,21.775,0,0,1-4.474,2.022,1.048,1.048,0,0,1-.492.063,1.32,1.32,0,0,1-1.048-1.121,1.96,1.96,0,0,1,0-.65,1.205,1.205,0,0,1,.922-1.048,30.954,30.954,0,0,0,5.648-2.1c.419-2.641.765-5.805,1.048-8.771l.356-3.144c.272-2.41,1.75-3.531,4.244-3.248l9.85,1.1.22-1.939c.073-.671.786-.954,1.7-.849s1.54.524,1.467,1.205l-.21,1.939Zm-34.936.461a.985.985,0,0,1,.891.618A32.829,32.829,0,0,1,29.717,33a1.048,1.048,0,0,1,0,.4,1.236,1.236,0,0,1-1.048,1.048,1.939,1.939,0,0,1-.681,0,1.048,1.048,0,0,1-.954-.817,49.02,49.02,0,0,0-1.509-5.5,1.352,1.352,0,0,1,0-.409,1.174,1.174,0,0,1,.912-.975,2.1,2.1,0,0,1,.786-.073Zm8.959,24.478A1.624,1.624,0,0,1,36,51.7a21.659,21.659,0,0,1-4.191,4.82,1.373,1.373,0,0,1-1.048.325,1.855,1.855,0,0,1-1.048-.513,1.268,1.268,0,0,1-.377-1.048,1.226,1.226,0,0,1,.451-.786,19.1,19.1,0,0,0,3.72-4.191,1.247,1.247,0,0,1,1.226-.587,1.488,1.488,0,0,1,.576.189,1.268,1.268,0,0,1,.87,1.247ZM48.17,29.89a1.509,1.509,0,0,0-.786.241A39.609,39.609,0,0,1,36,34.742a1.634,1.634,0,0,1-.451,0,1.3,1.3,0,0,1-1.048-1.048,1.866,1.866,0,0,1,0-.482,1.132,1.132,0,0,1,.838-1.048,35.543,35.543,0,0,0,10.992-4.1,3.144,3.144,0,0,1,2.1-.524,3.2,3.2,0,0,1,1.9.933A32.766,32.766,0,0,0,61.855,35.1a1.048,1.048,0,0,1,.744,1.236,2.4,2.4,0,0,1-.189.629,1.184,1.184,0,0,1-1.257.8,4.119,4.119,0,0,1-.618-.157A35.8,35.8,0,0,1,48.725,30.32a.964.964,0,0,0-.6-.43ZM36.8,47.41c-.073.6-.587.943-1.341.859s-1.184-.534-1.111-1.132l1-8.98c.2-1.781,1.153-2.389,3.144-2.169l6.287.692c1.939.22,2.777,1.048,2.578,2.819l-.87,7.157c-.2,1.823-1.467,2.441-3.489,2.211a7.754,7.754,0,0,1-2.1-.472.838.838,0,0,1-.576-.943.513.513,0,0,1,.063-.241.733.733,0,0,1,.828-.587h.157a5.082,5.082,0,0,0,1.32.346c.912.1,1.289,0,1.383-.849l.063-.629-7.084-.765Zm8.016-8c.073-.629-.262-.87-.933-.943l-5.019-.566c-.713-.073-1.048.094-1.048.723l-.094.87,7.042.786Zm-7.524,3.573,7.042.786.2-1.739-7.042-.817Zm3.447,11.526c-.115.954.22,1.226,3.772,1.666l1.111.126a18.3,18.3,0,0,0,3.552.157,1.237,1.237,0,0,0,.409-.115.933.933,0,0,0,.566-.461,3.72,3.72,0,0,0,.65-1.53c.136-.545.608-.734,1.195-.671h.283c.733.21,1.121.65,1.048,1.32v.2c-.335,1.53-.807,2.557-2.022,3.06-1.048.44-2.777.409-5.941.136l-1.551-.168a14.586,14.586,0,0,1-5.03-1.174,1.865,1.865,0,0,1-1.048-2.232l.461-4.108c.084-.8.723-1.048,1.593-.985s1.373.555,1.289,1.3ZM43.34,35c-.587-.063-.891-.576-.817-1.247a1.048,1.048,0,0,1,1.048-.964l8.309.933a1.048,1.048,0,0,1,.891,1.205c-.073.671-.482,1.1-1.048,1.048ZM48.369,52.4a1.184,1.184,0,0,1,.3.87,1.6,1.6,0,0,1-.587.943,1.121,1.121,0,0,1-.964.325,1.048,1.048,0,0,1-.681-.356,25.431,25.431,0,0,0-2.609-2.808.859.859,0,0,1-.272-.754,1.467,1.467,0,0,1,.409-.754,1.278,1.278,0,0,1,1.048-.44,1.3,1.3,0,0,1,.681.314A26.353,26.353,0,0,1,48.38,52.4Zm1.855-13.276a1.174,1.174,0,0,1,1.436-.964c.828.094,1.289.587,1.216,1.257L52.2,45.409c-.063.629-.629,1.048-1.457.912s-1.257-.576-1.195-1.216Zm6.6.094c.073-.671.681-1.048,1.509-.954s1.3.587,1.216,1.257l-.912,8.152c-.231,2.1-1.4,2.934-3.9,2.651a13.192,13.192,0,0,1-2.861-.555,1.228,1.228,0,0,1-.555-1.509c.189-.618.576-.859,1.048-.807a.629.629,0,0,1,.231.063,11.306,11.306,0,0,0,1.959.419c1.048.115,1.331,0,1.436-1.048Zm-2.7,13.737a1.362,1.362,0,0,1,.618-.891,1.823,1.823,0,0,1,1.048-.283,1.467,1.467,0,0,1,.975.629,38.477,38.477,0,0,1,2.913,4.778,1.739,1.739,0,0,1,.272,1.111,1.257,1.257,0,0,1-.713.964,1.415,1.415,0,0,1-.943.21,1.289,1.289,0,0,1-1.048-.754,30.619,30.619,0,0,0-2.913-5.093A.922.922,0,0,1,54.122,52.953Z" transform="translate(-0.377 -0.351)"/>
    <path id="パス_2860" data-name="パス 2860" d="M33.1,64.495v.115C32.249,70.4,31.149,77.373,30.436,83.7c-.409,3.72-.168,5.826.964,7.2s3.144,2.033,5.826,2.337a11.6,11.6,0,0,0,8.844-2.462,18.861,18.861,0,0,0,5.082-7.4,1.614,1.614,0,0,1,1.677-1.184,2.1,2.1,0,0,1,.629.189,1.677,1.677,0,0,1,1.048,1.76,2.19,2.19,0,0,1-.189.66,21.89,21.89,0,0,1-6.287,8.907,15.016,15.016,0,0,1-11.191,3c-3.72-.419-6.392-1.593-8.121-3.668s-2.159-4.652-1.6-9.682c.566-6.13,1.614-13.423,2.536-19.207a1.6,1.6,0,0,1,1.886-1.477h.084A1.519,1.519,0,0,1,33.1,64.495Z" transform="translate(-0.436 -1.016)"/>
    <path id="パス_2861" data-name="パス 2861" d="M444.354,75.68a1.3,1.3,0,0,1-.419.8,1.446,1.446,0,0,1-1.195.43,1.488,1.488,0,0,1-.933-.513,35.818,35.818,0,0,0-4.422-4.15,1.111,1.111,0,0,1-.4-1.048,1.7,1.7,0,0,1,.388-.838,1.4,1.4,0,0,1,1.195-.419,1.593,1.593,0,0,1,.713.262,33.04,33.04,0,0,1,4.652,4.191,1.551,1.551,0,0,1,.419,1.289Zm-.461,7.408a3.139,3.139,0,0,1-.126.5,50.926,50.926,0,0,1-6.13,9.609,1.656,1.656,0,0,1-1.341.482,1.582,1.582,0,0,1-.849-.356,1.373,1.373,0,0,1-.492-1.163,1.708,1.708,0,0,1,.388-.88,47.565,47.565,0,0,0,5.795-8.949,1.331,1.331,0,0,1,1.352-.807,1.75,1.75,0,0,1,.534.168A1.341,1.341,0,0,1,443.893,83.088Zm1.163-14.974a1.7,1.7,0,0,1-1.111-.639,33.317,33.317,0,0,0-3.992-4.191,1.3,1.3,0,0,1-.367-1.048,1.414,1.414,0,0,1,.43-.838,1.477,1.477,0,0,1,2-.073,35.165,35.165,0,0,1,4.265,4.432A1.687,1.687,0,0,1,446.6,66.9a1.257,1.257,0,0,1-.461.87A1.373,1.373,0,0,1,445.056,68.114ZM470.2,75.795c.545.063.817.576.744,1.226s-.451,1.048-1,1.048l-23.409-2.62c-.545-.063-.817-.608-.744-1.226a1.057,1.057,0,0,1,1.048-1.048l9.839,1.163.272-2.442-8.048-.9c-.513-.052-.744-.629-.681-1.184s.409-1.048.922-1l8.058.9.251-2.305-8.823-.985c-.576-.063-.775-.6-.713-1.216s.388-1.111.964-1.048l8.823.985.21-1.865c.073-.618.618-.922,1.383-.838s1.236.5,1.174,1.132l-.21,1.855,9.986,1.121c.587.063.817.608.744,1.226s-.419,1.048-1,1.048l-9.986-1.111-.293,2.232,8.75.975c.513.063.744.6.681,1.184s-.419,1.048-.922,1.048l-8.75-.975-.272,2.442ZM448.7,94.541c-.073.66-.65.933-1.457.838s-1.31-.482-1.236-1.132l1.572-14.115c.22-1.886,1.257-2.588,3.364-2.347l13.276,1.477c2.1.241,3.007,1.153,2.787,3.049L465.72,93.9c-.251,2.19-1.519,3.007-4.4,2.683a15.959,15.959,0,0,1-3.709-.786,1.174,1.174,0,0,1-.817-1.268.857.857,0,0,1,.073-.325,1.048,1.048,0,0,1,1.163-.828.912.912,0,0,1,.325.073,13.14,13.14,0,0,0,3.049.7c1.278.147,1.635-.073,1.739-.985l.272-2.4L449.3,89.187Zm15.477-10.625.178-1.6c.063-.629-.241-.838-.933-.922l-12.082-1.352c-.7-.073-1.048.1-1.111.692l-.178,1.6Zm-.534,4.736.293-2.63-14.1-1.572-.293,2.62Z" transform="translate(-7.052 -0.989)"/>
    <path id="パス_2862" data-name="パス 2862" d="M438.872,121.7a.681.681,0,0,1-.115.356,49.406,49.406,0,0,1-5.742,9.839,1.53,1.53,0,0,1-1.373.65,1.488,1.488,0,0,1-.807-.346,1.3,1.3,0,0,1-.5-1.163,1.582,1.582,0,0,1,.346-.775,41.014,41.014,0,0,0,5.512-9.3,1.205,1.205,0,0,1,1.257-.713,2.1,2.1,0,0,1,.608.178,1.247,1.247,0,0,1,.817,1.278Zm.22-8.54a1.415,1.415,0,0,1,.314,1.048,1.362,1.362,0,0,1-.43.88,1.582,1.582,0,0,1-1.184.377,1.278,1.278,0,0,1-.9-.5,27.169,27.169,0,0,0-3.636-3.762,1.258,1.258,0,0,1-.44-1.048,1.32,1.32,0,0,1,.471-.87,1.341,1.341,0,0,1,1.048-.356,1.75,1.75,0,0,1,.88.4,24.1,24.1,0,0,1,3.877,3.835Zm.692-6.528a1.54,1.54,0,0,1-.912-.472,43.266,43.266,0,0,0-3.6-3.982.964.964,0,0,1-.314-.849,1.362,1.362,0,0,1,.513-.943,1.488,1.488,0,0,1,1.1-.356,2.012,2.012,0,0,1,.922.4,33.1,33.1,0,0,1,3.573,3.982,1.373,1.373,0,0,1-.168,1.9,1.53,1.53,0,0,1-1.153.325Zm6.8,22a1.52,1.52,0,0,1-.513.943,24.353,24.353,0,0,1-6.444,3.888,1.708,1.708,0,0,1-.712.1,1.373,1.373,0,0,1-1.163-1.5,1.341,1.341,0,0,1,.859-1.121,20.589,20.589,0,0,0,5.763-3.3,1.3,1.3,0,0,1,1.048-.325,1.383,1.383,0,0,1,.744.3,1.142,1.142,0,0,1,.419,1.016Zm6.151-24.593c.618.073.849.65.775,1.268s-.419,1.132-1.048,1.048l-3.793-.43-.2,2.452,3.353.377c.587.063.817.608.754,1.184s-.43,1.142-1.048,1.048l-3.28-.367-.22,2.641c1.048-.1,2.1-.251,2.955-.377a.964.964,0,0,1,1.111.9.555.555,0,0,1,0,.262,1.048,1.048,0,0,1-.954.922,68.466,68.466,0,0,1-9.818,1.048h-.178a1.048,1.048,0,0,1-.943-1.174v-.22a.954.954,0,0,1,.954-.964c1.436,0,2.955-.073,4.37-.168l.272-3.07-3.322-.377c-.545-.063-.765-.671-.7-1.257s.409-1.048.964-1.048l3.238.356.2-2.452-3.29-.283c-.576-.063-.807-.65-.744-1.268s.43-1.132,1.048-1.048l3.353.377.157-1.718c.073-.618.513-.975,1.278-.891s1.195.545,1.132,1.163l-.157,1.718Zm-3.144,22.833c-3.081-.2-6.151-.472-9.106-.765a1.195,1.195,0,0,1,.2-2.379l1.561.178c2.043.231,4.087.419,6.13.608a.462.462,0,0,0,.2-.126.419.419,0,0,0,.2-.126,61.706,61.706,0,0,0-5.355-4.548.964.964,0,0,1-.451-.933,1.236,1.236,0,0,1,.377-.692,1.184,1.184,0,0,1,1-.367,1.75,1.75,0,0,1,.849.346l1.687,1.373a20.518,20.518,0,0,0,3.269-2.85,1.247,1.247,0,0,1,1.048-.43,1.5,1.5,0,0,1,.7.3.964.964,0,0,1,.492.9,1.048,1.048,0,0,1-.335.629,26.99,26.99,0,0,1-3.6,2.882l2.2,2.1a40.1,40.1,0,0,0,5.355-4.38,1.4,1.4,0,0,1,1.195-.419,1.593,1.593,0,0,1,.712.262,1.048,1.048,0,0,1,.5,1.048,1.383,1.383,0,0,1-.377.775,47.789,47.789,0,0,1-6.287,4.537c2.6.178,5.239.283,7.817.356-.409-.6-.828-1.163-1.247-1.687a1.01,1.01,0,0,1,.388-1.509,1.111,1.111,0,0,1,.8-.168,1.53,1.53,0,0,1,.9.461,34.456,34.456,0,0,1,3.72,5.732,1.782,1.782,0,0,1,.157.87,1.153,1.153,0,0,1-.734.985,1.373,1.373,0,0,1-.671.073,1.268,1.268,0,0,1-1.048-.786c-.272-.576-.608-1.205-.943-1.834-2.913,0-5.774-.168-8.676-.3l-.828,7.4c-.063.618-.66.964-1.425.87s-1.268-.545-1.195-1.163Zm5.449-21.02c-.618-.073-.891-.587-.817-1.278s.461-1.121,1.048-1.048l8.676.975c1.97.22,3,.964,2.787,2.819v.178a38.215,38.215,0,0,1-1.886,7.911c-.629,1.708-1.729,2.316-3.626,2.1a14.041,14.041,0,0,1-2.641-.513,1.121,1.121,0,0,1-.744-1.226,1.424,1.424,0,0,1,.073-.367,1.048,1.048,0,0,1,1.163-.828.713.713,0,0,1,.293.073,9.5,9.5,0,0,0,1.729.377c.87.094,1.236-.157,1.593-1.048a31.648,31.648,0,0,0,1.436-6.224c.073-.618-.157-.87-.964-.954l-3.06-.346c-.618,4.191-2.295,7.681-5.4,9.986a1.645,1.645,0,0,1-1.111.283,1.393,1.393,0,0,1-.8-.388,1.352,1.352,0,0,1-.262-.985,1.383,1.383,0,0,1,.5-.9c2.766-1.98,3.961-4.391,4.579-8.278ZM456.78,128.3a1.5,1.5,0,0,1,1.048.6,24.7,24.7,0,0,0,5.239,4.642,1.289,1.289,0,0,1,.639,1.257,1.446,1.446,0,0,1-.168.492,1.31,1.31,0,0,1-1.331.671,1.509,1.509,0,0,1-.639-.22,25.276,25.276,0,0,1-5.931-5.428,1.488,1.488,0,0,1-.293-.985,1.142,1.142,0,0,1,.618-.859,1.289,1.289,0,0,1,.849-.157Z" transform="translate(-6.977 -1.622)"/>
    <path id="パス_2863" data-name="パス 2863" d="M457.933,144.786l-.178-.084a34,34,0,0,0-2.934-1.813.975.975,0,0,1-.419-1.519,1.132,1.132,0,0,1,1.048-.5,3.776,3.776,0,0,1,.534.126,16.014,16.014,0,0,1,3.227,1.918,1.247,1.247,0,0,1,.472,1.048.985.985,0,0,1-.21.493,1.048,1.048,0,0,1-.671.44l2.515.283a1.048,1.048,0,0,1,.849,1.31c-.073.66-.471,1.205-1.121,1.132l-9.221-1.048a29.825,29.825,0,0,0,.692,7.335,11.89,11.89,0,0,0,.356,1.373,30.386,30.386,0,0,0,3.458-5.114,1.048,1.048,0,0,1,1.111-.692,1.32,1.32,0,0,1,.6.21,1.163,1.163,0,0,1,.713,1.195,1.637,1.637,0,0,1-.168.566,36.247,36.247,0,0,1-4.736,6.413,11.38,11.38,0,0,0,2.452,3.406,2.221,2.221,0,0,0,1.048.681.744.744,0,0,0,.681-.44,10.749,10.749,0,0,0,1.048-2.578,1.142,1.142,0,0,1,1.289-.891h.21a1.048,1.048,0,0,1,.9,1.216,1.28,1.28,0,0,1-.063.283,11.945,11.945,0,0,1-1.949,4.191,2.316,2.316,0,0,1-2.169.943,4.946,4.946,0,0,1-2.515-1.278,12.448,12.448,0,0,1-2.913-3.688,24.1,24.1,0,0,1-4.338,3.144,1.509,1.509,0,0,1-.943.262,1.247,1.247,0,0,1-.891-.608,1.31,1.31,0,0,1-.21-.838,1.268,1.268,0,0,1,.629-.933,22.423,22.423,0,0,0,4.726-3.374c-.272-.849-.545-1.729-.765-2.672a38.772,38.772,0,0,1-.87-8.383l-13.716-1.509c-.692-.073-1.048.063-1.174.87l-.356,3.206c-.587,5.239-1.708,9.368-3.73,12.574a1.383,1.383,0,0,1-1.373.734,1.981,1.981,0,0,1-.912-.4,1.258,1.258,0,0,1-.513-1.048,2.462,2.462,0,0,1,.356-.849c2.012-2.84,2.944-6.539,3.552-11.967l.346-3.144c.22-1.97,1.3-2.735,3.2-2.515l14.471,1.614a23.039,23.039,0,0,1,.157-2.379c.084-.8.566-1.048,1.4-1s1.268.513,1.195,1.247-.147,1.645-.168,2.421Zm-25.882,17.929a2.012,2.012,0,0,1,.639.178,1.205,1.205,0,0,1,.712,1.226,2.179,2.179,0,0,1-.178.608,24.384,24.384,0,0,1-4.191,6.067,1.352,1.352,0,0,1-1.153.388,1.572,1.572,0,0,1-.912-.43,1.268,1.268,0,0,1-.461-1.048,1.425,1.425,0,0,1,.388-.807,22.437,22.437,0,0,0,3.888-5.47,1.184,1.184,0,0,1,1.268-.723Zm3.657-13.255c-.587-.063-.828-.566-.754-1.226s.419-1.048,1.048-1l11.526,1.3c.587.063.828.566.754,1.184s-.419,1.1-1,1.048Zm8.907,3.144c1.719.2,2.295.922,2.1,2.641l-.377,3.385c-.2,1.718-.964,2.295-2.641,2.1l-6.706-.744c-1.708-.2-2.295-.922-2.1-2.641l.388-3.385c.189-1.718.912-2.295,2.63-2.1Zm-8.592,11.191a1.13,1.13,0,0,1,1.467-.912c.807.136,1.3.555,1.226,1.205l-.566,5.1c-.136,1.174.1,1.341,5.176,1.907,4.621.524,5.323.262,5.7-.168a5.041,5.041,0,0,0,.775-2.022,1.048,1.048,0,0,1,1.32-.922h.22c.765.157,1.153.608,1.048,1.257v.147a9.841,9.841,0,0,1-1.048,2.913,3.51,3.51,0,0,1-3.227,1.477,37.867,37.867,0,0,1-4.988-.293c-1.855-.21-3.751-.492-5.051-.754-2.379-.451-2.913-1.32-2.682-3.322Zm2.421-9.808a.7.7,0,0,0-.891.713l-.272,2.442a.7.7,0,0,0,.713.891l5.176.576a.7.7,0,0,0,.891-.713l.272-2.442a.7.7,0,0,0-.713-.891Zm8.655,12.071a1.268,1.268,0,0,1,.4,1.048,1.456,1.456,0,0,1-.388.807,1.4,1.4,0,0,1-1.048.4,1.3,1.3,0,0,1-.8-.419,45.123,45.123,0,0,0-3.9-3.427,1.048,1.048,0,0,1-.482-.974,1.278,1.278,0,0,1,.377-.734,1.174,1.174,0,0,1,1.048-.44,1.488,1.488,0,0,1,.7.3,33.22,33.22,0,0,1,4.087,3.458Zm6.025.231a1.4,1.4,0,0,1,1.488-1.048,1.373,1.373,0,0,1,1.048.629,35.458,35.458,0,0,1,3.416,6.067,1.467,1.467,0,0,1,.136.754,1.645,1.645,0,0,1-1.645,1.174,1.341,1.341,0,0,1-1.048-.849,39.15,39.15,0,0,0-3.144-5.774,1.31,1.31,0,0,1-.252-.933Z" transform="translate(-6.915 -2.278)"/>
    <path id="パス_2864" data-name="パス 2864" d="M409.721,101.312a8.383,8.383,0,0,0-2.662-5.732,9.315,9.315,0,0,1-2.546-4.464,16.158,16.158,0,0,0-4.611-7.01c-5.742-5.5-13.119-7.6-20.821-8.509a51.66,51.66,0,0,0-17.1,1.048,17.384,17.384,0,0,0-6,2.232c-4.024,2.693-8.634,3.647-13.507,4.087-5.176.461-9.818-.451-13.769-3.846a14.135,14.135,0,0,0-3.783-2.253,3.405,3.405,0,0,0-4.286.786,15.172,15.172,0,0,0-3.814,5.9c-.8,2.882-2.4,5.858-.713,8.917a5.732,5.732,0,0,1,.283,5.449c-2.358,5.512-1.551,10.751,2.2,15.644a5.658,5.658,0,0,1,1,4.191c-.272,3.8,1.467,6.769,5.124,8.708a6,6,0,0,1,2.232,1.467,12.794,12.794,0,0,0,11.306,5.7c.471,0,.954.073,1.1.566s-.189.8-.513,1.048a15.3,15.3,0,0,1-4.265,2.578,2.18,2.18,0,0,1-2.955-.744c-1.582-2.1-3.94-3.144-6.455-4.139-10.908-4.191-22.288-7.021-33.531-10.342-1.75-.524-2.295-1.195-2.1-2.651.451-2.7.513-5.47,1.477-8.079,2.1-5.669,2.986-11.673,5.47-17.227a12.838,12.838,0,0,0,.828-3.06,31.991,31.991,0,0,1,2.62-8.142,41.529,41.529,0,0,0,2.012-5.679c2.546-8.739,4.191-17.667,6.287-26.511A97.344,97.344,0,0,0,311.181,31.9a32.6,32.6,0,0,0-3-14.251c-3.374-7.66-10.479-11.526-18.453-13.936C282.144,1.43,274.16.969,266.2.98c-1.436,0-2.986.21-3.594,1.436-1.048,2.033-2.808,2.1-4.81,2.284-6.654.524-13.329,0-19.983-.1a39.148,39.148,0,0,0-13.109,2.1,112.571,112.571,0,0,0-20.433,9.483,9.357,9.357,0,0,0-4.82,5.889s-1.331,18.348-1.257,19.092c.346,3.751,3.489,10.772,4.066,15.058-.587,5.239,1.687,14.848,7.691,19.281a10.929,10.929,0,0,0,5.711,2.253c3.144.346,3.364-1.729,6.769,2.316.419.419.807.87.618,1.4-1.174,3.374-2.033,6.8-5.994,8.729a37.02,37.02,0,0,1-11.757,3.144c-2.379.3-4.768.671-7.094,1.205A18.861,18.861,0,0,0,185.082,104.7c-3.144,6.067-3.877,12.71-5.145,19.207a82.015,82.015,0,0,0-1.31,17.332c.094,4.852.231,9.693,2.924,14.209,1.823,3.049,1.97,6.5,1.928,9.881,0,2.1-.293,4.191-.325,6.287a126.635,126.635,0,0,1-.838,16.43c-1.268,8.645-2.431,17.321-3.647,25.976-.1.734-.251,1.457-.409,2.18a135.328,135.328,0,0,0-2.515,24.834,3.709,3.709,0,0,0,.534,2.452,1.54,1.54,0,0,0,1.446.7,1.174,1.174,0,0,0,1.1-1.048,16.178,16.178,0,0,0,0-1.886c.115-3.584.063-7.188.409-10.751.88-9.022,2.829-17.908,4.1-26.888,1.771-12.574,3.385-25.149,3.144-37.807a10.48,10.48,0,0,1,.147-1.9,1.153,1.153,0,0,1,1.718-.964,14.949,14.949,0,0,1,1.886.8c6.036,3.028,12.145,2.159,17.918,0a37.293,37.293,0,0,0,9.294-5.239c1.792-1.362,3.51-2.8,5.155-4.286a7.21,7.21,0,0,1-3.081-1.582A42.49,42.49,0,0,1,208.2,160.4c-7.335,3.385-14.785,3.144-20.486-1.97-3.217-2.882-4.548-6.654-5.145-10.573a60.074,60.074,0,0,1-.178-16.106c.136-1.153.251-2.305.388-3.468a93.544,93.544,0,0,1,3.468-17.677,26.2,26.2,0,0,1,2.473-5.512c2.934-5.134,7.492-7.985,13.842-8.5,3.657-.3,7.419-.482,10.835-1.624,5.239-1.771,10.217-4.191,11.935-9.756.765-2.483,1.677-3.458,4.715-2.84a5.973,5.973,0,0,0,1.373.1,1.355,1.355,0,0,0,.713-2.6,21.232,21.232,0,0,0-2.242-.817c-2.274-.8-4.684-1.257-6.769-2.462s-2.274-2.1-.65-3.751A8.624,8.624,0,0,1,223.517,72c1.4-1.048,3.091-2.683,1.76-4.81-.6-.943-8.792-6.287-10.384-13.454a18.862,18.862,0,0,1,.692-8.467c1.048-3.238,1.048-6.633,1.32-10,.2-3.049,2.84-5.1,6.1-4.925.744,0,.786.513,1.048,1.048.9,1.886,1.551,2.1,3.269,1.1.964-.545,1.9-1.153,2.829-1.739s1.8-1.268,1.467-2.295c-.545-1.739.671-2.18,1.886-2.829a46.294,46.294,0,0,0,3.982-2.421,2.588,2.588,0,0,1,3.144,0,38.1,38.1,0,0,1,9.787,8.551c1.624,1.876,2.221,4.4,3.636,6.486,2.421,5.04,5.658,4.349,7.272,8.75,1.739,3.353,1.572,4.862,1.394,6.476-.5,4.4-.283,4.076-.974,8.456-.786,4.967-3.332,9.347-5.868,13.7a5.533,5.533,0,0,1-3.06,2.389,24.785,24.785,0,0,1-2.588.828c-4.1.954-6.979,3.144-8.037,6.947-1.31,4.715-4.621,8.278-7.566,12.061a7.869,7.869,0,0,1,2.944,1.373c1.216-1.467,2.431-2.934,3.73-4.338a12.292,12.292,0,0,0,2.986-5.564c1.048-4.118,3.489-6.759,8.194-7.869A16.294,16.294,0,0,0,263.765,73c.88-1.7,1.8-3.385,2.777-5.04.472-.8.954-1.949,2.211-1.561,1.048.325.713,1.425.681,2.242a16.455,16.455,0,0,1-.2,1.886,31.352,31.352,0,0,1-3,9.64c-2.033,3.982-3.992,7.985-7.1,11.4a22.991,22.991,0,0,1-6.046,5.009,11.872,11.872,0,0,0-3.646,2.986,7.91,7.91,0,0,1,1.572,0,8.383,8.383,0,0,1,2.284.6,16.607,16.607,0,0,1,2.1-1.708c9.609-6.507,14.492-15.718,16.472-26.291.492-2.662,1.687-4.359,4.422-4.883,5.47-1.048,12.627-2.442,15.026-6.413,1.048-1.75,1.509-4.055-.461-5.323-1.666-.1-8.907-5.239-9.483-9.494C280.1,38.525,270.587,23.4,267.013,20.816c-3.29-2.379-3.416-2.316-2.1-5.7a17.9,17.9,0,0,0,1.509-7.723c-.178-3,.44-3.4,3.835-3.238,6.444.293,12.931.775,19.061,2.808,5.585,1.844,10.961,4.286,14.1,9.326a28.711,28.711,0,0,1,4.6,16.766c-.283,6.455-1.886,12.7-3.28,19-2.431,11.034-4.7,22.1-8.823,32.7-1.32,3.4-1.7,6.979-2.85,10.363-2.9,8.519-5.91,17-6.78,26a16.039,16.039,0,0,1-.8,3.385c-2.022,6.35-3.94,12.7-4.474,19.4-.5,6.287-1.991,12.574-2.316,18.861-.534,10.279-2.609,20.3-4.1,30.388-.87,5.941-2.1,11.851-2.347,17.866a97.181,97.181,0,0,1-.681,11.044c-.409,2.6-1.163,5.145-1.5,7.754-.765,5.753-1.383,11.526-1.991,17.3-.115,1.048-.838,2.641.975,2.892s1.729-1.394,1.865-2.494c.6-4.715,1.121-9.431,1.666-14.157a38.177,38.177,0,0,1,.943-5.931,54.488,54.488,0,0,0,1.76-15.047,54.551,54.551,0,0,1,1.3-13.517c2.1-8.75,2.9-17.7,4.726-26.479a13.778,13.778,0,0,0,.283-3.468,46.6,46.6,0,0,1,1.048-11.956,133.464,133.464,0,0,0,2.284-16.609c.4-4.81,1.97-9.284,3.385-13.821.618-1.98.838-1.991,2.871-1.216,1.278.493,2.578.933,3.867,1.4,5.491,2.012,11.264,3.144,16.818,4.988,3.909,1.289,7.848,2.536,11.684,3.992,5.03,1.907,6.884,4.778,6.56,9.724a19.019,19.019,0,0,1-.419,3.458c-.786,2.986-.754,6.046-1.048,9.085a42.847,42.847,0,0,0,3.9,22c1.341,2.944,6.172,4.317,8.907,2.41a1.352,1.352,0,0,0,.65-1.362,1.184,1.184,0,0,0-1.153-1.048,12.247,12.247,0,0,0-2.4,0,2.756,2.756,0,0,1-3.364-2.012,48.033,48.033,0,0,1-3.437-15.823c-.1-5.753.954-11.348,1.341-17.028a5.155,5.155,0,0,1,3.793-5.03,17.563,17.563,0,0,0,3.364-1.739c3.144-1.96,4.191-4.726,3.028-8.016a24.666,24.666,0,0,1-1.132-10.636A3.9,3.9,0,0,1,344,116.275a3.835,3.835,0,0,0,1.635-4.789,4.338,4.338,0,0,0-4.191-2.913c-.807,0-1.687,0-2.1-.838a3.563,3.563,0,0,1,.367-3.909,2.745,2.745,0,0,1,3.647-.733,6.9,6.9,0,0,0,3.6.922c4.883-.492,9.9.21,14.67-1.048,1.216-.314,2.148-.231,2.588,1.257.7,2.358,3.028,3.385,5.093,4.548a1.226,1.226,0,0,0,1.561-.147,1.048,1.048,0,0,0,0-1.467,20.414,20.414,0,0,0-1.687-1.6c-.8-.733-1.949-1.226-2.1-2.819,3.825-.723,7.827-.534,11.7-1.593-.325,3.311.168,3.835,3.353,3.9.922,0,1.834-.1,2.756-.094a26.864,26.864,0,0,1,2.745.2,1.132,1.132,0,0,1,1.142,1.289c0,2.871.115,2.944,3.259,3.636s3.332.87,3.007,3.846c-.639,5.941-3.447,11.044-6.979,15.875-1.645,2.242-1.687,2.263.555,4.3,1.048.975.765,1.645-.241,2.305a2.546,2.546,0,0,1-1.959.419c-2.305-.576-3.636.608-4.988,1.991a31.373,31.373,0,0,1-9.336,6.769,3.8,3.8,0,0,1-3.248.3c-3.668-1.425-3.72-1.394-6.057,1.593-.765.964-1.54,2.1-2.913,1.918-3.3-.293-4.967,1.635-6.7,3.636-.912,1.048-1.949,2.043-2.944,3.039a26.2,26.2,0,0,0-6.025,9.776,9.568,9.568,0,0,0-.618,3.416c0,.985.2,2.1,1.519,2.159a1.732,1.732,0,0,0,1.865-2.1,7.953,7.953,0,0,1,1-4.275c2.1-4.632,5.994-8.037,9.829-12.113a4.192,4.192,0,0,1,0,3.929c-1.153,3.416-3.5,6.287-4.663,9.766a26.394,26.394,0,0,1-4.338,7.807,17.53,17.53,0,0,0-2.232,4.558c-2.1,5.355-2.1,11.139-3.846,16.556-.356,1.1-.241,2.421-1.509,3.039-1.8.87-2.4,2.441-2.955,4.045a28.6,28.6,0,0,0-1.96,8.309c-.084,2.6-1.32,4.191-3.877,5.344a157.1,157.1,0,0,1-23.231,8.383c-6.654,1.8-12.92,4.359-18.065,8.6-4.244,3.5-8.75,6.685-13.109,10.049-.608.472-1.257.912-1.823,1.425a1.317,1.317,0,0,0-.293,1.97,1.593,1.593,0,0,0,1.886.325,7.147,7.147,0,0,0,1.781-.912c3.563-2.62,7.335-5.061,10.594-7.932a46.262,46.262,0,0,1,17.028-9.63c5.952-1.855,11.851-3.846,17.761-5.816a37.345,37.345,0,0,0,5.376-2.1c4.506-2.326,4.7-2.221,4.935,2.588.094,2.1-.084,4.191.87,6.287a16.284,16.284,0,0,0,26.333,4.443,37.336,37.336,0,0,0,10.049-17.635c2.043-8.624,3.647-17.342,6.214-25.861a8.729,8.729,0,0,0-1.226-7.639c-1.142-1.729-1.991-3.594-3-5.386a3.228,3.228,0,0,1-.136-3.29,28.387,28.387,0,0,0,1.865-4.726c.65-2.557-.671-3.6-3.385-2.861-2.159.587-2.41.492-2.2-1.572a82.176,82.176,0,0,0,.44-13.905c-.052-.775,0-1.551.807-1.949,2.976-1.488,5.627-3.458,9.106-4.191,5.816-1.205,10.845-3.584,14.523-8.184,3.458-4.328,6.161-9.043,9.158-13.622C409.124,116.454,410.465,109.108,409.721,101.312Zm-194.4-39.42a53.681,53.681,0,0,0,6.706,6.025c1.394.964-1.635,4-2.662,4.967-3.5,3.322-5.459,2.494-8.98-.891-3.762-3.615-5.4-7.471-6.4-12.428-.168-.828-.713-4.883.524-4.506,3.259,1,4.286-.964,5.459-2.944a3.982,3.982,0,0,1,1.823-2.159C211.854,55.175,213.468,58.423,215.323,61.892ZM237,18.93A15.372,15.372,0,0,1,231.47,23c-6.036,2.473-11.914,5.313-18.379,6.8-2.221.5-2.924,1.5-3.269,3.647-.534,3.238-.608,6.486-.849,9.724a22.729,22.729,0,0,1-1.645,6.748c-.272.681-.545,1.488-1.446,1.624-1.111.157-1.561-.754-2.1-1.415a7.272,7.272,0,0,1-1.268-3.269,59.245,59.245,0,0,1-.817-19.186c-.6-4.516,2.557-7.985,7.754-10.583,4.81-2.41,9.619-4.8,14.67-6.748a39.054,39.054,0,0,1,16.483-2.295c6.423.346,12.857.147,19.27-.147,2.787-.126,3.144.356,2.829,2.934a10.078,10.078,0,0,1-.241,1.247c-.975,3.877-1.4,4.045-5.4,2.641s-7.9-2.1-12.134-.975A15.969,15.969,0,0,0,237,18.877ZM270.66,29.094s6.287,10.2,8.383,18.861c1.048,4.307,4.621,5.795,8.823,8.467,1.7,1.142,1.959,1.666.733,3.563-1.614,2.473-13.884,4.652-16.766,5.093-3.814-3.594-6.13-1.739-6.13-1.739-1.236.44.241-11.526.241-11.526.126-3.783-3.144-8.708-4.558-9.818-7.335-6.287-3.992-8.016-10.384-14.251-2.316-1.048-8.068-5.92-9.913-8.236,0,0,2.431-2.892,5.753-2.986a17.436,17.436,0,0,1,10,1.666L264,22.063c3.081,1.331,4.935,3.647,6.664,7ZM373.476,182.343c1.415,1.97,2.724,4,2.033,6.5-.922,3.9-1.76,7.817-2.777,11.694-1.373,5.239-2.1,10.541-3.741,15.718s-3.615,9.923-7.4,14.01a24.215,24.215,0,0,1-5.941,4.652c-2.421,1.362-4.8.775-7.524.2a13.025,13.025,0,0,1-8.1-5.48,5.7,5.7,0,0,1-1.237-3.28c-.3-6.287.608-12.407,1.394-18.568.21-1.656.639-1.76,2.221-.985,1.226.6,2.421,1.257,3.678,1.792,4.946,2.1,8.739,1.446,12.49-1.98l2.211-1.959a6.717,6.717,0,0,0,2.431-4.673,37.639,37.639,0,0,1,6.874-17.6C371.443,180.415,372.061,180.415,373.476,182.343Zm-2.033-10.133a38.769,38.769,0,0,1-4.191,8.53c-3.647,5.721-6.842,11.579-7.545,18.369-.325,3.144-2.5,5.124-5.239,6.633s-5.355.534-7.9-.545c-1.257-.534-1.195-1.771-.943-2.819.472-1.939,1-3.877,1.635-5.784a14.585,14.585,0,0,0,.828-7.094c-.671-4.527.87-8.833,3.2-12.71a79.435,79.435,0,0,0,5.742-10.7,5.576,5.576,0,0,1,.807-.985,5.449,5.449,0,0,1-.314,3.552c-1.31,3.144-1,6.444-1.6,9.651-.136.733-.1,1.582.807,1.918a1.914,1.914,0,0,0,2.221-1.048,2.159,2.159,0,0,0,.367-.88c.388-4.307,1.488-8.488,2.263-12.731a2.829,2.829,0,0,0-.2-1.865c-1.886-3.018-.482-5.753.639-8.467a40.481,40.481,0,0,1,2.588-4.778c.367-.618.713-1.488,1.687-1.341,1.153.178,1.184,1.216,1.32,2.012a25.328,25.328,0,0,1,.314,6.947c-.293,2.62-.618,5.239-.744,7.88-.241,4.139.241,4.757,4.265,6.287Zm33.9-57.454a62.253,62.253,0,0,1-10.227,17.321c-.461.566-.87,1.383-1.865,1.048s-1.048-1.048-1.226-1.813a3.835,3.835,0,0,1,1.111-3.144c3.95-5.239,5.239-11.327,5.847-17.552.262-2.609-.534-3.343-3.426-3.6-1.373-.126-1.719-.513-1.635-1.771.189-2.955-.241-3.3-3.322-3.406-1.383,0-2.756-.084-4.191-.168s-2.169-.65-1.729-2.1a4.988,4.988,0,0,0,.251-1.236c.084-1.886-.713-2.525-2.724-2.18a7.1,7.1,0,0,0-1.624.492,30.692,30.692,0,0,1-12.941,2.662,40.266,40.266,0,0,0-6.14.639,40.584,40.584,0,0,1-12.69.126c-2.483-.377-4.988.126-7.5-.555-1.467-.4-2.829.618-3.814,1.718a4.935,4.935,0,0,0-1.6,3.07c.189,4.391-1.048,9.043,2.536,12.92a2.1,2.1,0,0,1,.451,2.1,20.873,20.873,0,0,0,.346,8.812c.524,2.169-.094,2.714-2.462,2.473a8.048,8.048,0,0,1-6.5-3.751,6.287,6.287,0,0,0-3.929-3.29,4.579,4.579,0,0,1-3.28-5.375c.472-2.442-.346-4.191-1.97-6.088a10.248,10.248,0,0,1-2.651-9.137,16.314,16.314,0,0,1,1.488-5.585,4.527,4.527,0,0,0-.189-4.191c-2.232-4.5-.22-8.383,2.1-12.208.765-1.236,2-1.226,3.238-.367.639.451,1.32.87,1.918,1.373,5.239,4.38,11.39,4.956,17.814,4.024a28.124,28.124,0,0,0,10.615-3.332c5.679-3.385,12.208-3.846,18.861-3.888a39.263,39.263,0,0,1,17.992,4c4.893,2.421,8.624,5.774,9.577,11.076a4.275,4.275,0,0,0,2.274,3.374,4.286,4.286,0,0,1,2.159,3.772c.367,4.642.775,9.274-.933,13.769Z" transform="translate(-2.849 -0.016)"/>
    <path id="パス_2865" data-name="パス 2865" d="M205.625,126.315a14.279,14.279,0,0,0-1.383,1.373,1.289,1.289,0,0,0,.168,1.991,1.53,1.53,0,0,0,1.907,0,11.369,11.369,0,0,0,1.729-1.509c2.965-3.144,5.952-6.287,8.729-9.651,2.62-3.144,5.386-6.13,8.131-9.148l.367-3.259a7.89,7.89,0,0,1,.639-2.326c-4.108,4.642-8.456,9.1-12.4,13.863C211.043,120.667,208.276,123.444,205.625,126.315Z" transform="translate(-3.305 -1.683)"/>
    <path id="パス_2866" data-name="パス 2866" d="M233.4,122.718a1.436,1.436,0,0,1-1.76,1.278,1.415,1.415,0,0,1-1.425-1.593l1.729-15.54a1.446,1.446,0,0,1,1.76-1.278c.954.1,1.54.681,1.436,1.593Zm16.106-13.863a1.415,1.415,0,0,1,1.687-1.31c.954.1,1.6.681,1.509,1.6l-1.3,11.526c-.587,5.313-2.347,8.875-5.658,11.2a20.957,20.957,0,0,1-11.369,3.311h-.251a1.551,1.551,0,0,1-1.456-1.415,1.194,1.194,0,0,1,0-.388,1.352,1.352,0,0,1,1.425-1.236,18.023,18.023,0,0,0,9.787-2.85c2.536-1.834,3.867-4.768,4.38-9.368Z" transform="translate(-3.733 -1.712)"/>
    <path id="パス_2867" data-name="パス 2867" d="M247.207,149.926a3.531,3.531,0,0,1,3.144,1.959,3.719,3.719,0,0,1,.252,1.959,7.638,7.638,0,0,1-.409,1.677c-2.578,7.387-10.342,12.721-20.349,13.035a1.048,1.048,0,0,1-.314,0,1.425,1.425,0,0,1-1.341-1.477.681.681,0,0,1,0-.325,1.383,1.383,0,0,1,1.394-1.278c8.676-.356,15.3-4.7,17.552-10.793a2.348,2.348,0,0,0,.189-.7c.073-.671-.272-1.048-1.436-1.236L225.1,150.429a1.509,1.509,0,0,1,.335-2.944Zm1.247-8.247a1.32,1.32,0,0,1,1.048,1.582,1.394,1.394,0,0,1-1.4,1.352l-19.4-2.169a1.4,1.4,0,0,1-1.048-1.624,1.341,1.341,0,0,1,1.4-1.31Z" transform="translate(-3.633 -2.263)"/>
    <path id="パス_2868" data-name="パス 2868" d="M228.419,177.248a1.247,1.247,0,0,1,1.048.87,48.111,48.111,0,0,1,2.1,7.66,4.67,4.67,0,0,1,0,.534,1.215,1.215,0,0,1-1.132,1.048,1.583,1.583,0,0,1-.576,0,1.205,1.205,0,0,1-1.132-1.048,48.474,48.474,0,0,0-1.959-7.408.88.88,0,0,1-.084-.5,1.268,1.268,0,0,1,1.048-1.048,1.425,1.425,0,0,1,.692-.1Zm20.779,3v.251a26.28,26.28,0,0,1-5.847,12.218,20.716,20.716,0,0,1-12.731,6.172,1.625,1.625,0,0,1-.4,0,1.257,1.257,0,0,1-1.163-1.1,2.285,2.285,0,0,1,0-.534,1.174,1.174,0,0,1,1.121-1.048,18.621,18.621,0,0,0,11.149-5.459c2.452-2.7,4.191-6.811,5.1-11.044a1.195,1.195,0,0,1,1.436-.943h.178C248.873,178.987,249.282,179.469,249.2,180.245Zm-13.193-3.584a1.31,1.31,0,0,1,1.121.912,37.138,37.138,0,0,1,1.949,7.534,1.048,1.048,0,0,1,0,.356,1.257,1.257,0,0,1-1.048,1.048,2.954,2.954,0,0,1-.608,0,1.163,1.163,0,0,1-1.121-.954,41.16,41.16,0,0,0-1.865-7.335,1.048,1.048,0,0,1-.084-.545,1.32,1.32,0,0,1,1.048-1.048A1.394,1.394,0,0,1,236.006,176.661Z" transform="translate(-3.675 -2.864)"/>
    <path id="パス_2869" data-name="パス 2869" d="M227.113,212.9a28.691,28.691,0,0,1-8.917,7.283,1.875,1.875,0,0,1-.954.178,1.593,1.593,0,0,1-1.132-.765,1.541,1.541,0,0,1-.178-.954,1.488,1.488,0,0,1,.88-1.226A25.432,25.432,0,0,0,227.585,206.4a1.4,1.4,0,0,1,1.5-.87,2.1,2.1,0,0,1,.618.178,1.289,1.289,0,0,1,.954,1.394,1.782,1.782,0,0,1-.115.451,14.169,14.169,0,0,1-1.708,2.745l11.107,1.048a3.3,3.3,0,0,1,3.28,3.961,6.109,6.109,0,0,1-.283,1.32c-3.248,9.787-11.2,17.1-23.6,18.662a1.968,1.968,0,0,1-.43,0,1.425,1.425,0,0,1-1.331-1.195,3.038,3.038,0,0,1,0-.534,1.362,1.362,0,0,1,1.32-1.215c10.646-1.572,17.688-7.167,20.884-16.525a5.911,5.911,0,0,0,.147-.629c.073-.671-.252-1.048-1.236-1.142h-.147Z" transform="translate(-3.501 -3.333)"/>
    <path id="パス_2870" data-name="パス 2870" d="M215.865,243.513c-.849-.094-1.236-.744-1.132-1.7a1.289,1.289,0,0,1,1.467-1.278l18.034,1.844a3.531,3.531,0,0,1,3,1.76,3.426,3.426,0,0,1,.262,1.823,6.445,6.445,0,0,1-.618,2.012,33.406,33.406,0,0,1-6.654,8.571,63.739,63.739,0,0,1,8.854,9.923,2.022,2.022,0,0,1,.356,1.289,1.781,1.781,0,0,1-.587,1.048,1.677,1.677,0,0,1-1.3.388,1.729,1.729,0,0,1-1.216-.713,58.584,58.584,0,0,0-8.383-9.965,39.7,39.7,0,0,1-16.022,8.173,2.483,2.483,0,0,1-.87.084,1.31,1.31,0,0,1-1.215-1.048,1.729,1.729,0,0,1,0-.618,1.645,1.645,0,0,1,1.236-1.4,39.955,39.955,0,0,0,13.423-6.224,30.1,30.1,0,0,0,9.284-10.6,2.829,2.829,0,0,0,.272-.765c.052-.524-.3-.817-1.195-.922Z" transform="translate(-3.402 -3.9)"/>
    <rect id="長方形_6882" data-name="長方形 6882" width="520" height="440" transform="translate(0.4 -157.984) rotate(5)" fill="none"/>
  </g>
</svg>
