<svg xmlns="http://www.w3.org/2000/svg" width="427.831" height="859.65" viewBox="0 0 427.831 859.65">
  <g id="img_mockup" transform="translate(-216.006 -218.999)">
    <path id="中マド_1" data-name="中マド 1" d="M-2284.995,10163.231h-300.179a59.467,59.467,0,0,1-23.292-4.7,59.855,59.855,0,0,1-10.164-5.517,60.264,60.264,0,0,1-8.856-7.307,60.265,60.265,0,0,1-7.307-8.854,59.915,59.915,0,0,1-5.517-10.164,59.469,59.469,0,0,1-4.7-23.291V9620.714a3.994,3.994,0,0,1-3.989-3.989v-53.852a3.993,3.993,0,0,1,3.989-3.988v-15.957a3.994,3.994,0,0,1-3.989-3.989v-53.852a3.994,3.994,0,0,1,3.989-3.989v-29.919a3.994,3.994,0,0,1-3.989-3.989v-23.936a3.994,3.994,0,0,1,3.989-3.989v-55.846a59.467,59.467,0,0,1,4.7-23.292,59.887,59.887,0,0,1,5.517-10.165,60.3,60.3,0,0,1,7.307-8.855,60.251,60.251,0,0,1,8.856-7.307,59.892,59.892,0,0,1,10.164-5.517,59.467,59.467,0,0,1,23.292-4.7h300.179a59.461,59.461,0,0,1,23.291,4.7,59.87,59.87,0,0,1,10.164,5.517,60.275,60.275,0,0,1,8.856,7.307,60.336,60.336,0,0,1,7.306,8.855,59.9,59.9,0,0,1,5.517,10.165,59.467,59.467,0,0,1,4.7,23.292v138.622a3.993,3.993,0,0,1,3.989,3.986v89.757a3.993,3.993,0,0,1-3.989,3.989V10103.4a59.469,59.469,0,0,1-4.7,23.291,59.926,59.926,0,0,1-5.517,10.164,60.3,60.3,0,0,1-7.306,8.854,60.3,60.3,0,0,1-8.856,7.307,59.842,59.842,0,0,1-10.164,5.517A59.461,59.461,0,0,1-2284.995,10163.231Zm-301.975-834.514a35.528,35.528,0,0,0-7.333.765,35.208,35.208,0,0,0-6.792,2.184,34.994,34.994,0,0,0-6.086,3.434,34.469,34.469,0,0,0-5.208,4.512,35.568,35.568,0,0,0-7.111,11.014,34.781,34.781,0,0,0-2.573,13.2V10103.2a35.343,35.343,0,0,0,.911,7.985,34.933,34.933,0,0,0,2.591,7.335,35.1,35.1,0,0,0,4.053,6.457,34.734,34.734,0,0,0,5.3,5.377,35.531,35.531,0,0,0,10.281,5.851,34.909,34.909,0,0,0,11.968,2.1H-2282.9a34.946,34.946,0,0,0,13.3-2.6,34.766,34.766,0,0,0,5.818-3.046,34.683,34.683,0,0,0,5.081-4.022,35.76,35.76,0,0,0,4.553-5.306,35.194,35.194,0,0,0,3.433-6.1,34.764,34.764,0,0,0,2.92-14.025V9363.824a35.451,35.451,0,0,0-.842-7.689,35.084,35.084,0,0,0-2.4-7.089,35.063,35.063,0,0,0-3.772-6.3,34.649,34.649,0,0,0-4.946-5.317,35.48,35.48,0,0,0-10.611-6.4,34.891,34.891,0,0,0-12.531-2.308h-39.458c-.364.01-3.6.166-4.872,2.6a14.868,14.868,0,0,0-.918,4.587,51.3,51.3,0,0,1-.844,5.539,24.934,24.934,0,0,1-2.247,6.275,18.237,18.237,0,0,1-3.033,4.162,20.407,20.407,0,0,1-4.351,3.41,22.393,22.393,0,0,1-5.532,2.306,25.357,25.357,0,0,1-6.575.847h-166.24a25.372,25.372,0,0,1-6.578-.847,22.43,22.43,0,0,1-5.53-2.306,20.286,20.286,0,0,1-4.351-3.41,18.228,18.228,0,0,1-3.032-4.162,24.71,24.71,0,0,1-2.247-6.277,50.634,50.634,0,0,1-.846-5.528v-.022a14.775,14.775,0,0,0-.917-4.573c-1.275-2.437-4.507-2.594-4.872-2.6Z" transform="translate(2865.007 -9084.582)" fill="#fff"/>
    <path id="camera" d="M113.818-960.017A5.983,5.983,0,0,1,119.8-966a5.983,5.983,0,0,1,5.984,5.983,5.984,5.984,0,0,1-5.984,5.984A5.983,5.983,0,0,1,113.818-960.017Zm-63.825,2.992A2.993,2.993,0,0,1,47-960.017a2.992,2.992,0,0,1,2.992-2.992H96.864a2.991,2.991,0,0,1,2.992,2.992,2.992,2.992,0,0,1-2.992,2.992Z" transform="translate(356.494 1212.924)" fill="#eeeef2"/>
  </g>
</svg>
